<svg xmlns="http://www.w3.org/2000/svg" fill="none" viewBox="-0.5 -0.5 200 200" id="Get-Inspired--Streamline-Bangalore" height="200" width="200">
  <desc>
    Get Inspired Streamline Illustration: https://streamlinehq.com
  </desc>
  <g id="Users-People-Get-inspired-01">
    <g id="color 2">
      <path id="Vector" fill="#e84300" d="M108.96642999999999 179.43631c4.691425 0.32437 5.273499999999999 -6.761025 0.597 -7.2436l-44.83868 -6.18094c-0.47650549999999997 -0.10149 -0.9685330000000001 -0.106465 -1.447128 -0.014924999999999999 -0.478595 0.090545 -0.934106 0.27661 -1.3397675 0.54725 -0.4056615 0.269645 -0.7533145 0.617895 -1.022462 1.023855 -0.269247 0.40596 -0.454516 0.8616699999999999 -0.5451605 1.340265 -0.090545 0.478595 -0.08447550000000001 0.97112 0.017711 1.4477250000000002 0.102286 0.47561 0.29869900000000005 0.92734 0.577697 1.326335 0.27899799999999997 0.39999 0.6351085 0.739285 1.0472375 0.99898s0.872018 0.434815 1.3527025 0.5144150000000001c-0.5005845 -0.02786 -1.001766 0.04577 -1.472998 0.21691 -0.4713315 0.17114 -0.9029625 0.43581 -1.2689235 0.779085 -0.36596100000000004 0.34228 -0.65869 0.7562 -0.8603765 1.214895 -0.2016865 0.458695 -0.30815149999999997 0.954205 -0.313027 1.4556850000000001 0.000597 0.8925150000000001 0.32835000000000003 1.75319 0.921171 2.4198399999999998 0.592821 0.667645 1.4096165 1.093505 2.295664 1.1989750000000001 -0.48347049999999997 -0.050745 -0.9723139999999999 -0.004975 -1.437775 0.13532 -0.4655605 0.14029499999999998 -0.8983855000000001 0.37213 -1.2732020000000002 0.681575 -0.3748165 0.30944499999999997 -0.6841619999999999 0.691525 -0.909828 1.121365 -0.225666 0.43083499999999997 -0.36317499999999997 0.9024650000000001 -0.4044675 1.38703 -0.0412925 0.48456499999999997 0.014427500000000001 0.972115 0.163976 1.43479 0.1495485 0.462675 0.389841 0.890525 0.706848 1.258675 0.317007 0.369145 0.7043605 0.6706300000000001 1.139474 0.88754 0.43501399999999996 0.21691 0.9089324999999999 0.345265 1.3940945 0.377105l44.794900000000005 6.185915c5.106339999999999 0.56914 5.752095 -6.351085 1.393 -7.198825 4.524265 0.10347999999999999 5.06057 -6.595854999999999 0.73232 -7.31524Z" stroke-width="1"></path>
      <path id="Subtract" fill="#e84300" fill-rule="evenodd" d="M48.058499999999995 72.635c11.4766285 -2.243725 23.124795 -3.4977234999999998 34.816045 -3.7481649999999997 -0.7682395 4.9973875 -1.0580829999999999 10.056664000000001 -0.86565 15.109075 -0.424467 -0.005373 -0.848934 -0.0108455 -1.2735005 -0.016318000000000003l-0.006467499999999999 -0.0000995 -0.006467499999999999 -0.0000995c-10.180641 -0.1316385 -20.436106 -0.26417250000000003 -31.7187095 1.6234419999999998 -1.886321 -4.0626845 -2.2225314999999997 -8.6747085 -0.9452499999999999 -12.967835Zm4.747941 2.2325809999999997c0.17720950000000002 -0.177309 0.276809 -0.417701 0.276809 -0.668441 0 -0.2506405 -0.0995995 -0.49113199999999996 -0.276809 -0.6683414999999999 -0.177309 -0.177309 -0.417701 -0.2769085 -0.668441 -0.2769085 -0.25074 0 -0.49113199999999996 0.0995995 -0.668441 0.2769085 -0.17720950000000002 0.17720950000000002 -0.276809 0.417701 -0.276809 0.6683414999999999 0 0.25074 0.0995995 0.49113199999999996 0.276809 0.668441 0.177309 0.17720950000000002 0.417701 0.276809 0.668441 0.276809 0.25074 0 0.49113199999999996 -0.0995995 0.668441 -0.276809ZM66.013275 80.777085c0 0.25074 -0.0995995 0.49113199999999996 -0.2769085 0.668441 -0.17720950000000002 0.17720950000000002 -0.4176015 0.276809 -0.6683414999999999 0.276809 -0.25074 0 -0.49113199999999996 -0.0995995 -0.6683414999999999 -0.276809 -0.177309 -0.177309 -0.2769085 -0.417701 -0.2769085 -0.668441 0 -0.2506405 0.0995995 -0.49113199999999996 0.2769085 -0.6683414999999999 0.17720950000000002 -0.177309 0.4176015 -0.2769085 0.6683414999999999 -0.2769085 0.25074 0 0.49113199999999996 0.0995995 0.6683414999999999 0.2769085 0.177309 0.17720950000000002 0.2769085 0.417701 0.2769085 0.6683414999999999Zm13.8620415 -8.102484c0.177309 -0.177309 0.2769085 -0.417701 0.2769085 -0.668441 0 -0.2506405 -0.0995995 -0.49113199999999996 -0.2769085 -0.6683414999999999 -0.17720950000000002 -0.177309 -0.4176015 -0.2769085 -0.6683414999999999 -0.2769085 -0.25074 0 -0.49113199999999996 0.0995995 -0.6683414999999999 0.2769085 -0.177309 0.17720950000000002 -0.2769085 0.417701 -0.2769085 0.6683414999999999 0 0.25074 0.0995995 0.49113199999999996 0.2769085 0.668441 0.17720950000000002 0.17720950000000002 0.4176015 0.276809 0.6683414999999999 0.276809 0.25074 0 0.49113199999999996 -0.0995995 0.6683414999999999 -0.276809Z" clip-rule="evenodd" stroke-width="1"></path>
      <path id="Subtract_2" fill="#e84300" fill-rule="evenodd" d="M100.09501 67.46896000000001c0 0.9452499999999999 0.5681449999999999 1.4934949999999998 2.098455 1.531305 1.187035 0.018904999999999998 2.627795 0.07561999999999999 4.215815 0.152235 -2.9670900000000002 4.4276505 -5.326235 9.233998 -7.01276 14.29019l-12.91112 -0.28357499999999997c-0.48158 -3.923285 0.150245 -10.635555 0.5482450000000001 -14.310089999999999l4.819780000000001 0.11343c0.6098355 0.034626 1.2188750000000002 -0.081789 1.772891 -0.339096 0.5541155 -0.25720750000000003 1.0360934999999998 -0.6472475 1.403149 -1.135494v-0.018904999999999998h5.065545Zm-6.244819000000001 13.031316c0.17720950000000002 -0.177309 0.276809 -0.417701 0.276809 -0.668441 0 -0.2506405 -0.0995995 -0.49113199999999996 -0.276809 -0.6683414999999999 -0.177309 -0.177309 -0.417701 -0.2769085 -0.668441 -0.2769085 -0.25074 0 -0.49113199999999996 0.0995995 -0.668441 0.2769085 -0.17720950000000002 0.17720950000000002 -0.276809 0.417701 -0.276809 0.6683414999999999 0 0.25074 0.0995995 0.49113199999999996 0.276809 0.668441 0.177309 0.17720950000000002 0.417701 0.276809 0.668441 0.276809 0.25074 0 0.49113199999999996 -0.0995995 0.668441 -0.276809Z" clip-rule="evenodd" stroke-width="1"></path>
      <path id="Subtract_3" fill="#e84300" fill-rule="evenodd" d="M110.20819 69.362445c8.65849 0.5671499999999999 29.773384999999998 2.49546 38.31745 5.859555 0.98505 4.4662565 0.590035 9.126538 -1.1342999999999999 13.36285 -16.180690000000002 -3.324295 -27.333645 -4.57501 -41.719355 -4.518295l-1.32335 4.577c-3.0058949999999998 -2.2118849999999997 2.9113700000000002 -14.442425 5.859555 -19.28111Zm5.0347 4.2574060000000005c0.17711 -0.177309 0.27661 -0.417701 0.27661 -0.668441 0 -0.2506405 -0.0995 -0.4910325 -0.27661 -0.6683414999999999 -0.17711 -0.177309 -0.4179 -0.2769085 -0.66864 -0.2769085 -0.25074 0 -0.49152999999999997 0.0995995 -0.66864 0.2769085 -0.17711 0.177309 -0.27661 0.417701 -0.27661 0.6683414999999999 0 0.25074 0.0995 0.49113199999999996 0.27661 0.668441 0.17711 0.177309 0.4179 0.276809 0.66864 0.276809 0.25074 0 0.49152999999999997 -0.0995 0.66864 -0.276809Zm14.247405 8.839779c0 0.25074 -0.0995 0.49113199999999996 -0.27661 0.668441 -0.17711 0.17720950000000002 -0.4179 0.276809 -0.66864 0.276809 -0.25074 0 -0.49152999999999997 -0.0995995 -0.66864 -0.276809 -0.17711 -0.177309 -0.27661 -0.417701 -0.27661 -0.668441 0 -0.2506405 0.0995 -0.49113199999999996 0.27661 -0.6683414999999999 0.17711 -0.177309 0.4179 -0.2769085 0.66864 -0.2769085 0.25074 0 0.49152999999999997 0.0995995 0.66864 0.2769085 0.17711 0.17720950000000002 0.27661 0.417701 0.27661 0.6683414999999999Zm15.71503 -4.5304340000000005c0.17711 -0.177309 0.27661 -0.417701 0.27661 -0.668441 0 -0.2506405 -0.0995 -0.49113199999999996 -0.27661 -0.6683414999999999 -0.17711 -0.177309 -0.4179 -0.2769085 -0.66864 -0.2769085 -0.25074 0 -0.49152999999999997 0.0995995 -0.66864 0.2769085 -0.17711 0.17720950000000002 -0.27661 0.417701 -0.27661 0.6683414999999999 0 0.25074 0.0995 0.49113199999999996 0.27661 0.668441 0.17711 0.177309 0.4179 0.276809 0.66864 0.276809 0.25074 0 0.49152999999999997 -0.0995 0.66864 -0.276809Z" clip-rule="evenodd" stroke-width="1"></path>
    </g>
    <g id="color 1">
      <path id="Vector_2" fill="#e0c100" d="m98.5647 64.40635 -2.779035 1.77707c0.2631775 -0.569538 0.4659585 -1.165145 0.6049599999999999 -1.77707 0.7240615 0.042188 1.4500135 0.042188 2.174075 0Z" stroke-width="1"></path>
      <path id="Vector_3" fill="#e0c100" d="M126.125205 58.07417c5.992884999999999 -13.5917 -16.068255 -2.189 -16.068255 -2.189 3.51633 -6.653565 -6.2754650000000005 -5.141165 -10.510185 -1.92831 4.31034 -2.92928 5.06654 1.32335 3.875525 3.74319 -0.207955 0.510435 0.037809999999999996 0.7562 1.077585 0.49152999999999997 2.174075 -0.5482450000000001 2.23278 2.8855 -1.47459 2.94918 -0.305465 0.142285 -0.5711299999999999 0.35640900000000003 -0.775105 0.623865 -1.1342999999999999 2.4755599999999998 -2.174075 4.460585 -2.174075 5.72722 0 0.964155 0.5671499999999999 1.5124 2.098455 1.531305 12.508144999999999 0.3863585 24.97251 1.6689135 37.29658 3.837715 1.75916 -0.630631 3.36111 -1.6322975 4.698390000000001 -2.9371405000000004 1.33728 -1.304843 2.37805 -2.882117 3.0516650000000003 -4.6248595 7.409765 -17.678165 -21.09599 -7.224695 -21.09599 -7.224695Z" stroke-width="1"></path>
      <path id="Vector_4" fill="#e0c100" d="M83.93322500000001 142.94966c-2.2151685000000003 2.6108800000000003 -5.188129 4.46755 -8.506255 5.312305 1.342255 2.418845 2.00393 6.653565 2.587 9.413695 0.992413 5.346135 2.544613 10.57287 4.63073 15.594635 4.1591 -9.353 4.6506300000000005 -17.371705 6.0117899999999995 -22.929775000000003 -1.3609609999999999 -2.5939650000000003 -2.9411205000000002 -5.06654 -4.723265 -7.39086Z" stroke-width="1"></path>
      <path id="Vector_5" fill="#e0c100" d="M144.36654000000001 110.11466c-2.7770449999999998 1.47658 -5.4207600000000005 3.190965 -7.901295 5.123255 2.40193 2.3611350000000004 4.136215 5.315289999999999 5.02873 8.56297 5.72125 -2.860625 15.430459999999998 -2.846695 25.72672 -7.296335 -9.300265 -4.253625 -17.31499 -4.95311 -22.854155000000002 -6.389889999999999Z" stroke-width="1"></path>
      <path id="Vector_6" fill="#e0c100" d="m118.63982 121.81586 -8.48735 7.0505700000000004 -2.854655 -2.494465c3.9372149999999997 -1.0954949999999999 7.7411 -2.623815 11.342004999999999 -4.556105Z" stroke-width="1"></path>
      <path id="Vector_7" fill="#e0c100" d="M82.96907 119.566165c0.26467 1.115395 0.586055 2.249695 0.964155 3.383 5.1538015 -0.888535 10.185217999999999 -2.381035 14.990670000000001 -4.444665 -4.896395 1.9661199999999999 -10.766895 1.8825399999999999 -15.954825 1.0616649999999999Z" stroke-width="1"></path>
    </g>
    <g id="outlines">
      <path id="Vector_8" stroke="#ff3900" stroke-linecap="round" stroke-linejoin="round" d="m84.42873499999999 168.72812 25.120765 3.429765c4.825749999999999 0.498495 3.9601 7.8376149999999996 -0.796 7.240615 4.751125 0.546255 3.8944300000000003 7.761 -0.808935 7.305289999999999 4.763065 0.6019749999999999 3.8665700000000003 7.775925 -0.78406 7.306285l-45.25459 -6.25656c-0.4786945 -0.048755 -0.9430609999999999 -0.192035 -1.3662345 -0.420885 -0.423074 -0.22984500000000002 -0.7966964999999999 -0.540285 -1.099276 -0.914405 -0.30247999999999997 -0.37412 -0.5279469999999999 -0.8049550000000001 -0.6633665 -1.266635 -0.1354195 -0.46168000000000003 -0.17810499999999999 -0.9452499999999999 -0.12556900000000001 -1.423845 0.052536 -0.478595 0.199199 -0.9412699999999999 0.43163100000000004 -1.36315 0.23233250000000003 -0.420885 0.5458569999999999 -0.793015 0.922365 -1.09251 0.376508 -0.299495 0.8086365 -0.5213800000000001 1.271411 -0.653715 0.46277450000000003 -0.13134 0.9471404999999999 -0.17014500000000002 1.425039 -0.114425 -0.482376 -0.047760000000000004 -0.950623 -0.190045 -1.3775775000000001 -0.41989 -0.42695449999999996 -0.22885 -0.8040595 -0.54128 -1.109624 -0.91739 -0.30556449999999996 -0.37611 -0.533519 -0.8099299999999999 -0.6705305 -1.274595 -0.13701149999999998 -0.46466500000000005 -0.18049300000000001 -0.9522149999999999 -0.1278575 -1.4337950000000002 0.0526355 -0.482575 0.2002935 -0.9492299999999999 0.43451649999999997 -1.3731 0.2341235 -0.424865 0.5501355 -0.7979900000000001 0.9298275 -1.099475 0.3795925 -0.301485 0.8152035 -0.52536 1.28156 -0.6567000000000001 0.466456 -0.132335 0.954404 -0.17014500000000002 1.4356855000000002 -0.11243500000000001 -0.4894405 -0.057710000000000004 -0.9620655 -0.21492 -1.3892190000000002 -0.460685 -0.4271535 -0.24576499999999998 -0.79998 -0.576105 -1.095893 -0.970125 -0.295913 -0.395015 -0.5088429999999999 -0.8447549999999999 -0.625855 -1.32335 -0.11691249999999999 -0.478595 -0.1356185 -0.9760949999999999 -0.054725 -1.46265 0.08079399999999999 -0.486555 0.2593965 -0.95122 0.5250615 -1.366135 0.2655655 -0.41591 0.6126215 -0.77212 1.0201735 -1.049725 0.407552 -0.27760500000000005 0.8670429999999999 -0.468645 1.350812 -0.56317 0.483769 -0.094525 0.9816670000000001 -0.090545 1.463645 0.012934999999999999l15.960795000000001 2.17905" stroke-width="1"></path>
      <path id="Vector_9" stroke="#ff3900" stroke-linecap="round" stroke-linejoin="round" d="M143.213335 55.143895c-2.896445 -8.7087375 -8.175915 -16.431231 -15.23942 -22.2914825 -7.063505 -5.860151999999999 -15.628465 -9.623441 -24.72177 -10.8629125 -25.934675000000002 -3.55812 -49.15897 14.10313 -51.945965 39.430855 -0.3797915 3.513544 -0.35441900000000004 7.059127 0.07561999999999999 10.566899999999999" stroke-width="1"></path>
      <path id="Vector_10" stroke="#ff3900" stroke-linecap="round" stroke-linejoin="round" d="M145.217265 74.16133c0.20695999999999998 -1.931295 0.28855 -3.873933 0.24477 -5.8157749999999995" stroke-width="1"></path>
      <path id="Vector_11" stroke="#ff3900" stroke-linecap="round" stroke-linejoin="round" d="M141.68800000000002 87.46050000000001c-0.253725 0.594811 -0.5572 1.167334 -0.90744 1.7114 -8.2784 13.631499999999999 -13.06236 21.5915 -16.42745 29.452" stroke-width="1"></path>
      <path id="Vector_12" stroke="#ff3900" stroke-linecap="round" stroke-linejoin="round" d="m87.30528 157.30949999999999 27.307775 3.73523c0.775105 -4.195914999999999 2.587 -16.842365 3.270565 -20.15074" stroke-width="1"></path>
      <path id="Vector_13" stroke="#ff3900" stroke-linecap="round" stroke-linejoin="round" d="M63.3815 136.371715c-0.037809999999999996 2.60292 -1.2238499999999999 14.33795 -1.322355 17.46623l15.594635 2.060645" stroke-width="1"></path>
      <path id="Vector_14" stroke="#ff3900" stroke-linecap="round" stroke-linejoin="round" d="M54.93594 84.76603999999999c2.078555 6.313275 3.704385 11.284294999999998 4.93321 15.670255000000001" stroke-width="1"></path>
      <path id="Vector_15" stroke="#ff3900" stroke-linecap="round" stroke-linejoin="round" d="m94.14093 59.35971 -11.152955 -1.531305c-1.4189695 -0.2235765 -2.868386 -0.1581055 -4.2614855 0.192433 -1.393 0.350638 -2.7007285000000003 0.97908 -3.8447795 1.847715 -1.1441504999999998 0.868635 -2.1008430000000002 1.9594535 -2.812865 3.207084 -0.7119225 1.247531 -1.1644485 2.6262030000000003 -1.330315 4.053033 -0.080197 0.7919205 -0.075222 1.5901095 0.014924999999999999 2.381035" stroke-width="1"></path>
      <path id="Vector_16" stroke="#ff3900" stroke-linecap="round" stroke-linejoin="round" d="m88.33809 157.4488 2.570085 -22.135765" stroke-width="1"></path>
      <path id="Vector_17" stroke="#ff3900" stroke-linecap="round" stroke-linejoin="round" d="M82.874545 68.86793s-2.587 15.085194999999999 0.90744 26.559535c-0.550832 1.3749905 -0.944056 2.8079894999999997 -1.17211 4.271535" stroke-width="1"></path>
      <path id="Vector_18" stroke="#ff3900" stroke-linecap="round" stroke-linejoin="round" d="M81.967105 83.990935c-10.604709999999999 -0.132335 -21.228325 -0.359195 -33.005145 1.60593 -1.875973 -4.0638784999999995 -2.205318 -8.6725195 -0.9263450000000001 -12.961865 14.413271499999999 -2.8330635 29.096586 -4.056814 43.78 -3.648665 1.92831 0.080595 3.192955 -1.135295 3.97005 -2.7979399999999996 0.2627795 -0.569737 0.465461 -1.165344 0.6049599999999999 -1.77707 -2.6865 -0.22686 -6.368 -1.6984650000000001 1.266635 -8.90326 0.5921244999999999 -0.5614785 1.2239495 -1.0794755 1.8904999999999998 -1.55021" stroke-width="1"></path>
      <path id="Vector_19" stroke="#ff3900" stroke-linecap="round" stroke-linejoin="round" d="M148.52563999999998 75.23792c-8.49929 -3.3133500000000002 -29.174395 -5.273499999999999 -38.336355000000005 -5.859555 -2.948185 4.8396799999999995 -8.865450000000001 17.07022 -5.859555 19.28111l1.342255 -4.593915c14.38571 -0.056715 25.538665 1.194 41.719355 4.518295 1.74722 -4.2248695000000005 2.14323 -8.8868425 1.1342999999999999 -13.345935Z" stroke-width="1"></path>
      <path id="Vector_20" stroke="#ff3900" stroke-linecap="round" stroke-linejoin="round" d="M103.46209 57.6105c1.133305 -2.432775 0.345265 -6.556055000000001 -3.915325 -3.65961 4.23472 -3.2128550000000002 14.029499999999999 -4.725255 10.510185 1.92831 0 0 22.060145 -11.398719999999999 16.068255 2.189 31.044 -11.377825 23.950645 10.909180000000001 13.345935 14.782715 -12.323075 -2.1816370000000003 -24.78744 -3.47056 -37.29658 -3.85662 -1.531305 -0.020895 -2.098455 -0.5671499999999999 -2.098455 -1.531305 0 -1.266635 1.0706200000000001 -3.23773 2.174075 -5.72722 0.20496999999999999 -0.267058 0.47063499999999997 -0.48108249999999997 0.775105 -0.623865 3.70737 -0.066665 3.6476699999999997 -3.499415 1.47459 -2.94918 -1.025845 0.26566500000000004 -1.2487249999999999 -0.096515 -1.037785 -0.5522250000000001Z" stroke-width="1"></path>
      <path id="Vector_21" stroke="#ff3900" stroke-linecap="round" stroke-linejoin="round" d="M157.31547 79.54826c1.55021 0.5449615 3.07057 1.1696225 4.556105 1.871595 8.855500000000001 4.27054 3.0049 3.270565 0.47262499999999996 2.2885" stroke-width="1"></path>
      <path id="Vector_22" stroke="#ff3900" stroke-linecap="round" stroke-linejoin="round" d="M161.09647 87.789845c1.067635 0.7131165 2.066615 1.5231459999999999 2.985 2.4198399999999998 2.174075 2.174075 0.946245 2.4755599999999998 -1.15221 1.43678 -1.720355 -0.85172 -3.7611 -1.68553 -5.917265 -2.49546 -2.88152 -1.1862389999999998 -5.908309999999999 -1.98005 -9.00077 -2.36014" stroke-width="1"></path>
      <path id="Vector_23" stroke="#ff3900" stroke-linecap="round" stroke-linejoin="round" d="M161.2099 89.28334c-0.046765 -2.6161535000000002 -0.98704 -5.1376825 -2.665605 -7.145095" stroke-width="1"></path>
      <path id="Vector_24" stroke="#ff3900" stroke-linecap="round" stroke-linejoin="round" d="M162.49544 88.810715c0.850725 0.434815 1.9273150000000001 0.92734 3.04271 1.4556850000000001 2.0407450000000003 0.9661449999999999 2.9103749999999997 0.66267 0.964155 -1.0945 -1.8377649999999999 -1.6563765000000001 -3.923285 -3.0147505 -6.18094 -4.0257700000000005" stroke-width="1"></path>
      <path id="Vector_25" stroke="#ff3900" stroke-linecap="round" stroke-linejoin="round" d="M163.59193 86.920215c7.39086 3.837715 8.538095 2.6934649999999998 2.456655 -1.194 -2.377055 -1.4368794999999999 -4.890425 -2.6334665 -7.50429 -3.57205" stroke-width="1"></path>
      <path id="Vector_26" stroke="#ff3900" stroke-linecap="round" stroke-linejoin="round" d="M151.85292 83.40487999999999c0.9979849999999999 0.227855 2.044725 0.09263450000000001 2.952165 -0.3813835 0.90744 -0.47411749999999997 1.616875 -1.2560879999999999 1.9999499999999997 -2.2056165 0.71441 -1.382055 0.18905 -2.04174 0.9830599999999999 -3.0058949999999998 1.228825 -1.4925 0.988035 -2.219845 -0.775105 -1.4556850000000001 -1.15022 0.4975 -3.837715 1.8526900000000002 -5.897365 1.24773 -0.86366 -0.24079 -1.7313 -0.47262499999999996 -2.26263 -0.607945" stroke-width="1"></path>
      <path id="Vector_27" stroke="#ff3900" stroke-linecap="round" stroke-linejoin="round" d="M39.134345 76.387145c-1.600955 0.476406 -3.1727564999999998 1.0458444999999998 -4.707345 1.70543 -9.017685 3.913335 -3.13823 3.13823 -0.5671499999999999 2.2685999999999997" stroke-width="1"></path>
      <path id="Vector_28" stroke="#ff3900" stroke-linecap="round" stroke-linejoin="round" d="M34.917535 84.48246499999999c-1.0954949999999999 0.670829 -2.1258174999999997 1.4426505 -3.077535 2.305415 -2.25069 2.098455 -1.059675 2.4377500000000003 1.077585 1.4925 1.75717 -0.7761 3.8387100000000003 -1.50643 6.010795000000001 -2.23079 6.4675 -2.1561649999999997 9.4525 -2.002935 9.4525 -2.002935" stroke-width="1"></path>
      <path id="Vector_29" stroke="#ff3900" stroke-linecap="round" stroke-linejoin="round" d="M34.747389999999996 85.974965c0.1585035 -2.61287 1.203751 -5.093405 2.9631100000000004 -7.031665" stroke-width="1"></path>
      <path id="Vector_30" stroke="#ff3900" stroke-linecap="round" stroke-linejoin="round" d="M33.49966 85.44562499999999c-0.86963 0.398 -1.9661199999999999 0.850725 -3.10042 1.32335 -2.07955 0.868635 -2.932265 0.546255 -0.9263450000000001 -1.1342999999999999 1.8967685 -1.587224 4.040894000000001 -2.852665 6.347104999999999 -3.746175" stroke-width="1"></path>
      <path id="Vector_31" stroke="#ff3900" stroke-linecap="round" stroke-linejoin="round" d="M32.459885 83.499405c-7.561999999999999 3.515335 -8.643564999999999 2.29845 -2.4009349999999996 -1.3044449999999999 2.4386455 -1.3302155 5.001367500000001 -2.419243 7.65155 -3.2516599999999998" stroke-width="1"></path>
      <path id="Vector_32" stroke="#ff3900" stroke-linecap="round" stroke-linejoin="round" d="M47.581894999999996 74.53943c-2.09746 0.50944 -6.954054999999999 -0.76018 -8.07144 -1.3044449999999999 -1.71737 -0.8377899999999999 -2.000945 -0.13532 -0.83182 1.41688 0.739285 0.982065 0.22984500000000002 1.549215 0.6427700000000001 2.76013 0.41889499999999996 1.22783 1.4925 3.119325 3.97005 2.6467" stroke-width="1"></path>
      <path id="Vector_33" stroke="#ff3900" stroke-linecap="round" stroke-linejoin="round" d="m83.93322500000001 142.930755 1.115395 1.5124" stroke-width="1"></path>
      <path id="Vector_34" stroke="#ff3900" stroke-linecap="round" stroke-linejoin="round" d="M85.04862 144.44315500000002c1.3536975 1.869605 2.560931 3.841695 3.610855 5.897365 -1.3611600000000001 5.55807 -1.8526900000000002 13.572795 -6.0117899999999995 22.929775000000003 -2.085719 -5.021764999999999 -3.6378195 -10.2485 -4.63073 -15.594635 -0.661675 -3.0845000000000002 -1.153205 -6.597845 -2.587 -9.39479" stroke-width="1"></path>
      <path id="Vector_35" stroke="#ff3900" stroke-linecap="round" stroke-linejoin="round" d="M136.465245 115.25682c2.48352 -1.929305 5.12624 -3.64369 7.901295 -5.123255 5.539165000000001 1.417875 13.553889999999999 2.11736 22.854155000000002 6.368 -5.039675000000001 2.03577 -10.279345 3.5372250000000003 -15.632445 4.4775 -4.24467 0.8616699999999999 -6.4675 1.00694 -10.104225 2.820825" stroke-width="1"></path>
      <path id="Vector_36" stroke="#ff3900" stroke-linecap="round" stroke-linejoin="round" d="m49.1132 142.55265500000002 -12.325065 -19.753735000000002" stroke-width="1"></path>
      <path id="Vector_37" stroke="#ff3900" stroke-linecap="round" stroke-linejoin="round" d="m35.37026 128.86643 1.417875 -6.0675099999999995 6.068505 1.417875" stroke-width="1"></path>
      <path id="Vector_38" stroke="#ff3900" stroke-linecap="round" stroke-linejoin="round" d="M178.241315 70.777335c0 0.6019749999999999 -0.17810499999999999 1.190418 -0.51342 1.6910025 -0.33432 0.500485 -0.808935 0.8906245 -1.36514 1.120967 -0.5562050000000001 0.230442 -1.16813 0.29063950000000005 -1.75916 0.1732295 -0.590035 -0.11740999999999999 -1.13231 -0.40735299999999997 -1.55817 -0.833014 -0.42586 -0.425661 -0.715405 -0.9680354999999999 -0.832815 -1.5583690000000001 -0.11740999999999999 -0.590433 -0.057710000000000004 -1.2024575 0.17312999999999998 -1.7586625 0.22984500000000002 -0.5561054999999999 0.619885 -1.0315165 1.121365 -1.365936 0.500485 -0.3344195 1.08853 -0.5129225 1.6905050000000001 -0.5129225 0.39999 -0.0002985 0.796 0.0783065 1.165145 0.2311385 0.369145 0.152832 0.7054549999999999 0.3770055 0.988035 0.6597845 0.28258 0.28267950000000003 0.506455 0.618293 0.6596850000000001 0.987637 0.152235 0.36944350000000004 0.23084000000000002 0.765354 0.23084000000000002 1.165145Z" stroke-width="1"></path>
      <path id="Vector_39" stroke="#ff3900" stroke-linecap="round" stroke-linejoin="round" d="M130.68131 179.98157c0 0.39601000000000003 -0.11740999999999999 0.78406 -0.337305 1.113405 -0.22089 0.329345 -0.53332 0.586055 -0.8994800000000001 0.73829 -0.36616 0.15123999999999999 -0.769135 0.19104000000000002 -1.15818 0.11343 -0.38904500000000003 -0.076615 -0.745255 -0.26765500000000003 -1.025845 -0.5482450000000001 -0.28058999999999995 -0.28058999999999995 -0.47163 -0.6368 -0.5482450000000001 -1.025845 -0.07761 -0.38904500000000003 -0.037809999999999996 -0.7920200000000001 0.11343 -1.15818 0.152235 -0.36616 0.40894499999999995 -0.67859 0.73829 -0.8994800000000001 0.329345 -0.219895 0.717395 -0.337305 1.113405 -0.337305 0.263675 -0.00199 0.52536 0.048755 0.769135 0.14925 0.243775 0.0995 0.46566 0.24676 0.651725 0.43382 0.18706 0.186065 0.33432 0.40795 0.43382 0.651725 0.100495 0.243775 0.15123999999999999 0.50546 0.14925 0.769135Z" stroke-width="1"></path>
      <path id="Vector_40" stroke="#ff3900" stroke-linecap="round" stroke-linejoin="round" d="m46.447595 32.422075 6.7868949999999995 3.9889550000000003" stroke-width="1"></path>
      <path id="Vector_41" stroke="#ff3900" stroke-linecap="round" stroke-linejoin="round" d="m81.362145 4.975 2.363125 7.4475750000000005" stroke-width="1"></path>
      <path id="Vector_42" stroke="#ff3900" stroke-linecap="round" stroke-linejoin="round" d="m124.537185 14.804604999999999 3.762095 -6.823709999999999" stroke-width="1"></path>
      <path id="Vector_43" stroke="#ff3900" stroke-linecap="round" stroke-linejoin="round" d="m153.61009 42.139244999999995 7.07047 -3.421805" stroke-width="1"></path>
      <path id="Vector_44" stroke="#ff3900" stroke-linecap="round" stroke-linejoin="round" d="m24.80336 49.32215 -0.793015 7.27743" stroke-width="1"></path>
      <path id="Vector_45" stroke="#ff3900" stroke-linecap="round" stroke-linejoin="round" d="m28.036115 53.366825 -7.27743 -0.793015" stroke-width="1"></path>
      <path id="Vector_46" stroke="#ff3900" stroke-linecap="round" stroke-linejoin="round" d="M106.39037499999999 69.1525c-2.9670900000000002 4.427949 -5.326235 9.2346945 -7.01276 14.291184999999999l-12.892215 -0.28457c-0.6049599999999999 -4.8396799999999995 0.52934 -14.310089999999999 0.52934 -14.310089999999999" stroke-width="1"></path>
      <path id="Vector_47" stroke="#ff3900" stroke-linecap="round" stroke-linejoin="round" d="m86.90131 86.44759 0.71839 7.561999999999999 4.4983949999999995 3.137235 4.764060000000001 -3.2128550000000002 1.682545 -7.316235 -11.66339 -0.17014500000000002Z" stroke-width="1"></path>
      <path id="Vector_48" stroke="#ff3900" stroke-linecap="round" stroke-linejoin="round" d="M94.991655 67.487865h5.065545" stroke-width="1"></path>
      <path id="Vector_49" stroke="#ff3900" stroke-linecap="round" stroke-linejoin="round" d="m118.63982 121.81586 -8.48735 7.0505700000000004 -2.83973 -2.4984450000000002" stroke-width="1"></path>
      <path id="Vector_50" stroke="#ff3900" stroke-linecap="round" stroke-linejoin="round" d="m104.32973 88.659475 -1.833785 6.3142700000000005s11.133055 15.70508 -1.4925 22.5865c-3.001915 1.636775 -7.278425 2.7491849999999998 -12.935 2.52133 -5.4232474999999996 -0.2985 -10.765701 -1.4477250000000002 -15.831444999999999 -3.40688 4.143975999999999 7.919205 8.810924 15.55384 13.9698 22.85316 -1.432004 2.87953 -3.662794 5.28544 -6.4257100000000005 6.930175 -2.492276 1.405935 -5.259569999999999 2.2536750000000003 -8.111239999999999 2.4875 -7.1233045 -10.322130000000001 -13.644733500000001 -21.04624 -19.53185 -32.119595 -0.8735105 -1.6278199999999998 -1.3335985000000001 -3.445685 -1.3397675 -5.2934 -0.0062685 -1.8467200000000001 0.44168050000000003 -3.66757 1.304246 -5.30136 0.8624660000000001 -1.6337899999999999 2.1132804999999997 -3.03077 3.642297 -4.06756 1.5290165 -1.03679 3.28947 -1.6815499999999999 5.1263395 -1.8785599999999998 9.58384 -1.02286 20.64227 -1.2099199999999999 29.054 0.22686" stroke-width="1"></path>
      <path id="Vector_51" stroke="#ff3900" stroke-linecap="round" stroke-linejoin="round" d="M72.237 116.674695c-1.05868 -1.9472150000000001 -1.8904999999999998 -3.799905 -1.8904999999999998 -3.799905" stroke-width="1"></path>
      <path id="Vector_52" stroke="#ff3900" stroke-linecap="round" stroke-linejoin="round" d="M82.96907 119.566165c1.981244 8.619685 6.975547 16.24835 14.08323 21.5119 1.935673 1.4696150000000001 4.19691 2.450685 6.591875 2.862615 2.394965 0.410935 4.85361 0.23979499999999998 7.168975 -0.49949 11.296235 -3.6357299999999997 21.91189 -9.116190000000001 31.418120000000002 -16.218500000000002 -0.98107 -6.18094 -3.397925 -10.563915000000001 -8.601775 -14.3479 -7.895325 4.999875 -17.35678 11.170865000000001 -26.316755 13.493195 -2.55516 -2.5820250000000002 -4.641675 -5.586925 -6.1690000000000005 -8.882365" stroke-width="1"></path>
      <path id="Vector_53" stroke="#ff3900" stroke-linecap="round" stroke-linejoin="round" d="M98.923895 118.5045c-4.805452 2.06363 -9.8368685 3.55414 -14.990670000000001 4.4426749999999995" stroke-width="1"></path>
      <path id="Vector_54" stroke="#ff3900" stroke-linecap="round" stroke-linejoin="round" d="M96.390625 64.40635c0.7240615 0.042088499999999994 1.4500135 0.042088499999999994 2.174075 0l-2.779035 1.77707" stroke-width="1"></path>
    </g>
  </g>
</svg>