<svg xmlns="http://www.w3.org/2000/svg" viewBox="0 0 200 200" id="Protect-Privacy-2--Streamline-Free-Illustrations" height="200" width="200">
  <desc>
    Protect Privacy 2 Streamline Illustration: https://streamlinehq.com
  </desc>
  <g>
    <g>
      <path d="M66.88 40.689600000000006c8 -7 6.36 -24.700000000000003 -8.1096 -24.46 -17.540000000000003 0.30000000000000004 -18.5104 18.4904 -4.760000000000001 26 -10.8704 2.9000000000000004 -19.3808 23.6504 3.0696000000000003 26 27.92 -4.1095999999999995 28.0304 -23.169600000000003 9.8 -27.54" fill="#e0c817" stroke-width="0.8"></path>
      <path d="M44.32 128c4 -1.6800000000000002 2.8304 -5.490400000000001 -0.9 -2.18 2.16 -5.389600000000001 -2 -5 -2.44 -0.12 -2.1096 -4 -5.8096 -2.42 -2.1096 1.1296 -4.4208 -1.4096000000000002 -6.1504 2 -0.7808 2.1904 -5.36 2.2896 -2.64 5.1000000000000005 1.52 1.7800000000000002 -3.2296 5 1.1199999999999999 5.300000000000001 2.3504 0.5504 2.3496 4.88 6.1096 3.48 2.1496 -1 4.74 1.3296000000000001 6.28 -1.54 0.21040000000000003 -2.3504" fill="#fb4e1b" stroke-width="0.8"></path>
      <path d="M27.12 126.34000000000002c2.84 -3.9104 -0.24 -6.46 -2.3304 -0.7904 -0.76 -4.28 -5 -4.1496 -2.4496 0.3104 -5 -3.4704 -5.5600000000000005 0.7704 -0.7104 2.3504 -4.7 1.0896000000000001 -4 5 0.6504 2.3296 -2.5104 3.9296 0.6096 6.4896 2.06 1.32 1.08 5.7896 4.62 3.8600000000000003 2.2096 -1 4.3704 4.4104 5.7104 0.26 1.1304 -2.1504000000000003 5.720000000000001 -0.96 5.089600000000001 -4.3096 -0.5599999999999999 -2.3696" fill="#fb4e1b" stroke-width="0.8"></path>
      <path d="M54.409600000000005 87.78a7 7 0 0 0 -9.14 1.7800000000000002c-1.8800000000000001 2.64 -1.5 6.4896 0.2304 6.58 0.66 0 1 -0.8400000000000001 0.8296 -1.4800000000000002 -1 -3.8304000000000005 3 -7 6.8904 -5a4 4 0 0 1 1.64 4.34c-0.6504 2.2 -3.5 3.14 -4.54 1.1199999999999999 -1.1696 -2.2304 2.4704 -1.1199999999999999 2.7600000000000002 -2.3504 0.5304000000000001 -2.2800000000000002 -3.3896 -1.8592 -4.3 -0.6000000000000001 -2.3496 2.5504000000000002 -0.06 6.4704 3.4104 6.3904000000000005 5.220000000000001 -0.08960000000000001 6.889600000000001 -8.1096 2.22 -10.780000000000001Z" fill="#fb4e1b" stroke-width="0.8"></path>
      <path d="M60.82000000000001 126.5696c3.16 -4.18 0.7096 -6.78 -2.2896 -0.86 -0.5304000000000001 -4.08 -4.7304 -4.1696 -2.4600000000000004 0.1704 -4.790400000000001 -3.5296000000000003 -5.590400000000001 0.45039999999999997 -0.8304 2.18 -4.7496 0.8 -4 4.0504 0.5304000000000001 2.2399999999999998 -2.7304 3.6 0.26 6.170400000000001 2 1.3504 0.7696000000000001 5.5296 4.4096 3.88 2.2600000000000002 -0.86 4.1296 4.389600000000001 5.7 0.54 1.2400000000000002 -2 5.2 -0.7904 4.62 -4.2504 -0.45039999999999997 -2.22Z" fill="#fb4e1b" stroke-width="0.8"></path>
      <path d="M41.7 66.5296c33.8296 13.180000000000001 56 -24.5 42.6104 -45.22C76.86000000000001 9.749600000000001 60.86000000000001 3 46.36000000000001 5.5096 16.7904 10.56 10.240000000000002 54.260799999999996 41.7 66.5304Zm-9.120000000000001 -8.729600000000001C35.300000000000004 47.7 44 43.06960000000001 52.909600000000005 42.909600000000005c10.410400000000001 -0.1896 19.340000000000003 5 22.52 16.2504C63 70.11040000000001 43.46000000000001 68 32.580000000000005 57.800000000000004m15.0504 -18.6096C39.24 34.528800000000004 38.57040000000001 25.499200000000002 42.800000000000004 20.1896a13.62 13.62 0 0 1 20.82 -0.42080000000000006c4 4.4504 2.44 12 -0.12 15.719999999999999a12.3 12.3 0 0 1 -15.8696 3.7Zm-24 -6.130400000000001c3.2200000000000006 -20.8904 20.1 -28.12 35.4296 -25.200000000000003 13.8696 2.6496 26.450400000000002 13.8 26.84 27 0.1896 6.859999999999999 -2 14.440000000000001 -8.650400000000001 22.14 -2 -5.94 -6.4896 -13.62 -16.5696 -15.880000000000003 12.32 -6.6104 9.9704 -28.750400000000003 -7.529600000000001 -28.24 -17 0.5 -20.510400000000004 20.6704 -6.580800000000001 28.469600000000003C38.869600000000005 43.220800000000004 33.6296 48 30.689600000000002 55.879999999999995a27 27 0 0 1 -7.029600000000001 -22.82Z" fill="#fb4e1b" stroke-width="0.8"></path>
      <path d="M25.630399999999998 96.56c-2.06 1.64 -2.6304 -0.5599999999999999 -1.1904000000000001 -3.2696 1.2400000000000002 -2.3904 0.66 -4 -0.7000000000000001 -4.94 -2.1504000000000003 -1.46 -6.6904 1.2000000000000002 -4.84 3a1.1400000000000001 1.1400000000000001 0 0 0 1.6600000000000001 -0.35040000000000004c0.86 -1.3296000000000001 2.6504000000000003 -0.66 1.7896 1.1104 -2.06 3.6096 -1.08 6 0.3904 6.940000000000001a3.18 3.18 0 0 0 4.2 -0.45039999999999997c1.06 -1.36 0.42960000000000004 -3.4200000000000004 -1.3104 -2.04Z" fill="#fb4e1b" stroke-width="0.8"></path>
      <path d="M187.14000000000001 131.1504c3.3200000000000003 -12.870400000000002 4.14 -26 -1.52 -34 -3 -4.3904000000000005 -7.550400000000001 -6.6904 -13 -7.250400000000001 -0.22000000000000003 -5.5504 -1 -8.92 -7.540000000000001 -9.82 -2.72 -13.42 -8.700000000000001 -21.560000000000002 -19.14 -25.340000000000003 3.08 -0.7400000000000001 14.149600000000001 -0.27040000000000003 12.709600000000002 -6.0704 13.770400000000002 -3 4 -15.549600000000002 -8.809600000000001 -6.909600000000001 -1.64 -8.520000000000001 -8.8 -1.8896000000000002 -13.210400000000002 1.3704 4.74 -5.800000000000001 2.52 -13.110400000000002 -4.6296 -9.4304 0.3496 -9.1896 -10.66 -5.3296 -10.6904 2.6296 -3.3095999999999997 -1.5896000000000001 -6.66 0.16000000000000003 -5 9 -1.82 -2.1296 -4.4096 -4.28 -6.909600000000001 -4.4192 -4.62 -10.920000000000002 -17 -5.74 -10.120000000000001 2.2496 -0.68 1.94 -0.11040000000000001 3.2 3.4200000000000004 6.6000000000000005 -8.410400000000001 -1.2400000000000002 -6.450400000000001 3.6104000000000003 -6.450400000000001 3.6104000000000003 -10.72 2.1896 -9.4496 12.629600000000002 4.9104 8.82 -4.3104000000000005 4.760000000000001 -6.7304 11.1096 -7 18.869600000000002a8.329600000000001 8.329600000000001 0 0 0 -3.88 2.2504000000000004c-23.230400000000003 -0.16000000000000003 -49.5904 -1.6104 -67.38 0.2296 -18 1.7504000000000002 -15.310400000000001 21.6704 0.58 22 14.349600000000002 -0.13999999999999999 32.9 0.27999999999999997 48.189600000000006 0.3104 -3.4095999999999997 3.4200000000000004 -5.1296 6.4496 -5.38 11.68 -21.92 -0.3808 -27.32 -0.1704 -43.4296 0.36000000000000004s-17 21.400000000000002 -1.0904 22.44c16 0.6000000000000001 32 -0.2 48 -0.2504 1.9104 7.68 4.930400000000001 15.8696 11.06 19.6 -1.2896 13.5296 -6 16.6904 -1.7696000000000003 19.44 -2.68 0.8696 -5.630400000000001 1.4400000000000002 -9.4904 5.3704 -3.6200000000000006 3.6896000000000004 -0.6400000000000001 9.1696 2.8800000000000003 9.309600000000001 7.0904 0.30000000000000004 53.92000000000001 3.7104 56.08 -2.2504000000000004 0.8104 2.1 2.1504000000000003 2.62 4.130400000000001 2.5904000000000003s30.62 -0.1896 30.62 -0.1896 18.62 -0.86 19.400000000000002 -4.6504c1.0896000000000001 -5.2896 -2.64 -7.629600000000001 -9.8704 -11 4.1704 -4.4504 -2.7896 -7.4904 -4.66 -26.469600000000003 11.3704 -2.92 16.080000000000002 -9.410400000000001 18.9904 -20.680000000000003M21.849600000000002 137.88c-12.849600000000002 -0.8800000000000001 -11.98 -17.380000000000003 1.08 -17.6296 16.070400000000003 -0.5304000000000001 21.410400000000003 -0.7104 43.290400000000005 -0.37040000000000006a71.56 71.56 0 0 0 2.8304 17.7504c-15.970400000000001 0.08000000000000002 -31.8904 0.8400000000000001 -47.2 0.24960000000000002Zm102 -88.54c6.540000000000001 -0.6304000000000001 9.8504 1.2096 12.6904 3.2496000000000005 -7.629600000000001 -2.2296 -18.06 -0.38 -25.380000000000003 2.6104000000000003 1.2504 -2.68 6.640000000000001 -5.2704 12.66 -5.86Zm-32.4496 36.36000000000001c0.5696 -1.5504 2.34 -2.1896 4.12 -2.4704a1.2000000000000002 1.2000000000000002 0 0 0 1 -1.1696 30.8896 30.8896 0 0 1 2.8104 -12.870400000000002 6 6 0 0 0 4.44 -3c4 2.16 9.5096 -0.8296 9 -5.1000000000000005 2.0696000000000003 2.32 5.74 1.1400000000000001 6.82 -0.5096a2.2304 2.2304 0 0 0 2.4096 2.18c-1.2000000000000002 4.64 2.8504000000000005 8.909600000000001 8.58 5.800000000000001 7.359999999999999 1.1199999999999999 7.56 -5.44 6.46 -7.3904 1.52 0.45999999999999996 3.4896000000000003 0 3.9200000000000004 -1.6296 1 2 3 4.0696 7.829600000000001 3a4.7696 4.7696 0 0 0 5.590400000000001 3.8296c0 1.82 3.0896000000000003 4.6504 5.08 5.3504000000000005 1.2400000000000002 0.42960000000000004 3 6.840000000000001 3.4704 9.86 0.5792 3.5896000000000003 7 -2.4104 7.2896 8.2096a19.700000000000003 19.700000000000003 0 0 0 -18.72 18c-5.140000000000001 -1.74 -9.150400000000001 0 -9.64 8.540000000000001 -12.120000000000001 0.1704 -27.160000000000004 -1.3 -37.909600000000005 -7.089600000000001 -9.700000000000001 -5.24 -15.9504 -14.240000000000002 -12.550400000000002 -23.540000000000003m52.6 48.72c2.2504000000000004 10.810400000000001 7.2304 14.76 17.34 14.92 0.6704 0 1 0.4904 0.7000000000000001 1.08 -0.7400000000000001 1.4296 -10.620000000000001 0.8904000000000001 -15.6504 -5 -2.3096 -2.7 -4.0592 -7.840000000000001 -4.24 -11.14 -0.08960000000000001 -0.8904000000000001 1.4000000000000001 -1.8704 1.8504000000000003 0.13999999999999999M125.6096 117.84000000000002q5 0.5896 10.550400000000002 0.7904l-9.16 16.1896s-3.8600000000000003 -6.3904000000000005 -3.6799999999999997 -8.120000000000001c1.6800000000000002 -3.12 6.750400000000001 -3.7 2.2504000000000004 -8.86Zm-25 7c-1.74 0.30000000000000004 -2.6 -6.76 -3.54 -11.08a1.2696 1.2696 0 0 1 0.66 -1.5696c1.7704000000000002 -0.6304000000000001 2.32 2 2.7304 4.78 0.2696 2.0296 1.82 7.5496 0.1 7.829600000000001Zm-77.16000000000001 -21.7504c-12.909600000000001 -0.25920000000000004 -15.16 -15.7696 -0.3296 -17.149600000000003 17.0504 -1.7896 43 -0.42960000000000004 65.5296 -0.24960000000000002 -1.3496000000000001 2.6896000000000004 -1.2696 6.720000000000001 -0.24 10a57.150400000000005 57.150400000000005 0 0 0 -14.080000000000002 7.800000000000001c-7.329600000000001 -0.1704 -42.5296 -0.4904 -50.88 -0.4Zm50 40.900800000000004c5.2704 -6.5904 32.2104 -19.700000000000003 36.3808 -13 1 1.6096000000000001 0.9199999999999999 5.6696 -2.84 9.1 1.4296 3.5896000000000003 2.52 10.280000000000001 -0.12 13.880000000000003a22.52 22.52 0 0 1 -5.8504000000000005 -5 1.0504 1.0504 0 0 0 -1.6 1.36 19.180000000000003 19.180000000000003 0 0 0 6 5.5696 15.719999999999999 15.719999999999999 0 0 1 -7.7904 4.3 34.78 34.78 0 0 1 -4.889600000000001 -5c-1 -1.1696 -2.08 0.44000000000000006 -1.26 1.7800000000000002a22.450400000000002 22.450400000000002 0 0 0 3.0896000000000003 3.78c-10.86 1.04 -18.349600000000002 -5.960000000000001 -21.169600000000003 -16.76Zm38.28 42.6696a1.0904 1.0904 0 0 1 -1.62 0.52c-3.5296000000000003 -2.8800000000000003 -8.200000000000001 -5.5 -22.169600000000003 -6 -1.5504 0 -2 -1.8 -0.48 -1.8496 13.709600000000002 -0.44000000000000006 24.949600000000004 4.94 24.22 7.329600000000001Zm0.3304 -56.5496a4.6504 4.6504 0 0 0 -2.2504000000000004 -2.34c-1 -5 -1.6 -8.4704 -2.34 -14.070400000000001a63.78 63.78 0 0 0 8 2.3800000000000003c-5.2696000000000005 5.140000000000001 -0.8896000000000002 6 0.3304 9.620000000000001 -0.34 0.96 -2.5104 3.1696000000000004 -3.8000000000000003 4.4104Zm17 54.369600000000005c-1.2800000000000002 0.2 -1.4504000000000001 -4.66 -4.1104 -12.280000000000001 -1.1199999999999999 -3.2096 -1.6496 -4.5200000000000005 -0.5 -5s1.8904 2.42 3.8104 9.5304c1.5304000000000002 5.86 2.1504000000000003 7.529600000000001 0.7400000000000001 7.7496Zm0.7904 -26c-1.9000000000000001 -0.16000000000000003 -11.8504 0.13999999999999999 -11.3704 -1.9096000000000002 0.13999999999999999 -0.6104 -0.24 -1.0904 7.640000000000001 -0.52s22.5696 0.30000000000000004 26.309600000000003 -0.5599999999999999c2.5904000000000003 -0.5904 3.5200000000000005 1.2096 2.16 1.62 -4.78 1.4096000000000002 -21.669600000000003 1.58 -24.8 1.3296000000000001Zm32.5696 20.8c-8.48 0.34 -15.600000000000001 3.0904000000000003 -21.400000000000002 5.6104 -0.8800000000000001 0.38 -1.32 -0.34 -1 -0.9304000000000001 0.8104 -1.46 5.84 -3.4200000000000004 11.08 -4.8696 7.38 -2 13.130400000000002 -1.6303999999999998 13.440000000000001 -0.9104 0.13040000000000002 0.4 -0.36000000000000004 0.9904000000000001 -2.18 1.06Zm-17.94 -60c-1.2800000000000002 -8.6496 3.58 -11.520000000000001 6.909600000000001 -8.66 0.66 0.5599999999999999 0.37040000000000006 7.440000000000001 2 7.3104000000000005a1.16 1.16 0 0 0 1 -1.4104c-2.1296 -10.88 1.82 -20.8296 11.88 -23.740000000000002 -0.2 0.32000000000000006 -2.64 11.86 -0.1696 12 2 0.13999999999999999 0.9199999999999999 -3.8496000000000006 2.84 -12.529600000000002a13.62 13.62 0 0 1 10.1696 2 63.71040000000001 63.71040000000001 0 0 0 -2.3600000000000003 11.7896c-0.1896 1.5504 1.46 2.8104 1.7504000000000002 1.2704000000000002a118.6704 118.6704 0 0 1 2.68 -11.630400000000002c7.88 4.86 7.68 20.6504 3.84 34.4104 -4.2896 15.040000000000001 -36.5096 16.649600000000003 -40.6 -10.830400000000001Z" fill="#fb4e1b" stroke-width="0.8"></path>
      <path d="M103.40960000000001 92.12960000000001c9.4304 4.430400000000001 23.4704 -2.18 14 -12.38 -15.149600000000001 -12.96 -25.809600000000003 5.8208 -14 12.3808Zm1.08 -14.1296c2.2904 -0.82 4.7104 0 7.240000000000001 1.0904 -3 3.4496 -4.18 8.08 -4.5896 11.6896 -7.640000000000001 -0.26 -7.8104000000000005 -10.98 -2.6504000000000003 -12.780000000000001" fill="#fb4e1b" stroke-width="0.8"></path>
      <path d="M77.61040000000001 97.06960000000001c-0.09040000000000001 1.5504 2.4000000000000004 1.8104 2.3896 0.24 0 -2.5296000000000003 0.9 -9.409600000000001 -1.56 -9.14 -2.12 0.22000000000000003 -0.7504 7.440000000000001 -0.8296 8.9" fill="#fb4e1b" stroke-width="0.8"></path>
      <path d="M133.7896 79c1.9304 -0.78 5.120000000000001 -3.48 6.6904 -4.6296 1.26 -0.9304000000000001 0.18000000000000002 -2.8904 -1.1696 -2.1a20.22 20.22 0 0 0 -6.7904 5.1896c-0.7000000000000001 0.82 0.30000000000000004 1.94 1.2696 1.54" fill="#fb4e1b" stroke-width="0.8"></path>
      <path d="M128.2896 94.26960000000001c2.3904 0.08000000000000002 5.16 0.13999999999999999 5.3504000000000005 -1s-0.9504 -1.2696 -4 -1.3800000000000001c-4.86 -0.1696 -4.84 -0.24 -4.930400000000001 -1.4896000000000003a29.34 29.34 0 0 1 0.3904 -3.4904000000000006 1.2096 1.2096 0 0 0 -2.3904 -0.30960000000000004c-0.9496000000000001 5.4 -1.4400000000000002 7.4 5.58 7.6704Z" fill="#fb4e1b" stroke-width="0.8"></path>
      <path d="M70.82960000000001 93.9304c-1 0.26 -0.8896000000000002 -1.1704 -1.2400000000000002 -2 -2.1296 -8.58 -10.4496 -5 -7.800000000000001 6.08a1.2096 1.2096 0 0 0 2.3704 -0.44000000000000006c-0.6896 -5 -0.5 -8.5104 1.62 -7.9104s1.4400000000000002 5.4 3.5904000000000007 6.5c2.3896 1.26 4.82 -3.16 1.46 -2.2304Z" fill="#fb4e1b" stroke-width="0.8"></path>
      <path d="M114.2504 74.4704c1.94 1.6 5.74 5.7096 7.26 5.4896 3.3496000000000006 -0.5 -3.9408000000000003 -6.2696000000000005 -6 -7.540000000000001 -1.32 -0.82 -2.5104 1.0504 -1.2608000000000001 2.0504000000000002Z" fill="#fb4e1b" stroke-width="0.8"></path>
      <path d="M130.2704 98.22000000000001c-1.7000000000000002 -1 -12.1104 -1.94 -12.4704 0.42000000000000004s8.32 1.16 12 1.8904c1.2000000000000002 0.24 2.1 -1.34 0.4696 -2.3104Z" fill="#fb4e1b" stroke-width="0.8"></path>
      <path d="M39.85040000000001 95.38c-3.6 3.7600000000000002 -7.120000000000001 0.11040000000000001 -5.6000000000000005 -5.7104 0.17920000000000003 -0.6400000000000001 -0.18080000000000002 -1.4800000000000002 -0.8504 -1.4800000000000002 -2.9104 0 -3.4200000000000004 9.3808 1.1696 11.0904a6.5200000000000005 6.5200000000000005 0 0 0 7.0904 -2c1.1104 -1.34 -0.42000000000000004 -3.3600000000000003 -1.8104 -1.9000000000000001Z" fill="#fb4e1b" stroke-width="0.8"></path>
      <path d="M135.42000000000002 80.92000000000002c-5 8.1896 3.7200000000000006 17.5904 16.4496 11.240000000000002 7.940000000000001 -4 5.48 -15.740000000000002 -1.8696000000000002 -16.64 -3.9200000000000004 -0.52 -12.600000000000001 2.16 -14.580000000000002 5.4m13.66 -3c7.5696 0.66 7.48 12.22 -1.58 13.6696 -0.3904 -4 -1.7800000000000002 -9.0592 -4.590400000000001 -12.520000000000001a13.6504 13.6504 0 0 1 6.170400000000001 -1.2000000000000002Z" fill="#fb4e1b" stroke-width="0.8"></path>
    </g>
  </g>
</svg>