<svg xmlns="http://www.w3.org/2000/svg" viewBox="0 0 400 400" id="Online-Learning--Streamline-Free-Illustrations" height="200" width="200">
  <desc>
    Online Learning Streamline Illustration: https://streamlinehq.com
  </desc>
  <g>
    <path d="M194.9 60.4v5.31h-74.834V60.4Zm-60.237 2.875a1.241 1.241 0 1 0-1.242 1.242 1.239 1.239 0 0 0 1.246-1.246Zm-4.885 0a1.241 1.241 0 1 0-1.243 1.242 1.24 1.24 0 0 0 1.247-1.246Zm-4.886 0a1.241 1.241 0 1 0-1.242 1.242 1.24 1.24 0 0 0 1.25-1.246Z" fill="#ff3900" transform="scale(2)"></path>
    <path d="M179.978 171.359h-81.66l-10.27-7.272-30.721-21.752.046-.206a4.589 4.589 0 0 0 1.361.206h77.071a4.575 4.575 0 0 0 2.307-.621Zm-44.47-11.153h21.965l-6.453-4.568-14.332-10.152h-66.3l5.744 4.069 15.041 10.651Zm-17.916 8.362h31.872l-7.946-5.626h-31.952l7.946 5.626Z" fill="#decd03" transform="scale(2)"></path>
    <path d="m157.473 160.206-21.965 0 0-.129-5.988-4.24 21.361 0 .139-.199z" fill="#decd03" transform="scale(2)"></path>
    <path d="m100.555 149.555-5.744-4.069 41.877 0 14.332 10.152-.139.199-21.361 0 5.988 4.24 0 .129-44.34 0-15.041-10.651z" fill="#decd03" transform="scale(2)"></path>
    <path d="m149.464 168.568-31.872 0-.08 0-7.946-5.626 31.872 0 .08 0z" fill="#ffc077" transform="scale(2)"></path>
    <path d="M140.391 110.317v27.436a4.582 4.582 0 0 1-4.586 4.582H58.734a4.579 4.579 0 0 1-4.582-4.582V82.884a4.584 4.584 0 0 1 4.582-4.584h77.071a4.584 4.584 0 0 1 4.586 4.586Zm-3.49 24.93V85.386a3.6 3.6 0 0 0-3.6-3.6H61.239a3.6 3.6 0 0 0-3.6 3.6v49.861a3.6 3.6 0 0 0 3.6 3.6H133.3a3.6 3.6 0 0 0 3.6-3.6Z" fill="#decd03" transform="scale(2)"></path>
    <path d="M136.9 85.386V100.8h-.684v-.259c0-4.4-2.478-6.55-5.507-6.55h-.324a.739.739 0 0 1-.74-.736v-1.162a2.834 2.834 0 0 0 1.581-2.54v-1.578a2.834 2.834 0 0 0-5.668 0v1.578a2.834 2.834 0 0 0 1.581 2.54v1.166a.74.74 0 0 1-.216.52.748.748 0 0 1-.523.221 6.068 6.068 0 0 0-6.264 6.411h-.07V81.788H133.3a3.6 3.6 0 0 1 3.6 3.598" fill="#ffc077" transform="scale(2)"></path>
    <path d="m136.133 137.247.154.011a3.594 3.594 0 0 1-2.984 1.587h-13.237v-.4h.07a6.068 6.068 0 0 1 6.264-6.411.737.737 0 0 0 .74-.736v-1.166a2.833 2.833 0 0 1-1.581-2.54v-1.577a2.834 2.834 0 0 1 5.668 0v1.577a2.833 2.833 0 0 1-1.581 2.54v1.168a.739.739 0 0 0 .74.736h.324c2.705-.003 4.969 1.714 5.423 5.211" fill="#ff3900" transform="scale(2)"></path>
    <path d="M136.217 119.39v.373h-16.151v-.513h.07a6.068 6.068 0 0 1 6.264-6.41.744.744 0 0 0 .524-.217.736.736 0 0 0 .216-.52v-1.165a2.834 2.834 0 0 1-1.581-2.541v-1.577a2.834 2.834 0 0 1 5.668 0v1.58a2.834 2.834 0 0 1-1.581 2.541v1.159a.74.74 0 0 0 .74.737h.324c3.029.003 5.507 2.156 5.507 6.553" fill="#ff3900" transform="scale(2)"></path>
    <path d="M136.217 100.545v.259h-16.151v-.4h.07A6.068 6.068 0 0 1 126.4 94a.748.748 0 0 0 .524-.216.74.74 0 0 0 .216-.52v-1.171a2.834 2.834 0 0 1-1.581-2.54v-1.578a2.834 2.834 0 0 1 5.668 0v1.578a2.834 2.834 0 0 1-1.581 2.54v1.166a.739.739 0 0 0 .74.736h.324c3.029.005 5.507 2.153 5.507 6.55" fill="#ff3900" transform="scale(2)"></path>
    <path d="M128.539 62.032a1.241 1.241 0 1 1-1.238 1.239 1.24 1.24 0 0 1 1.238-1.239" fill="#ffc077" transform="scale(2)"></path>
    <path d="M123.654 62.032a1.241 1.241 0 1 1-1.239 1.239 1.24 1.24 0 0 1 1.239-1.239" fill="#decd03" transform="scale(2)"></path>
    <path d="M107.66 25.149v5.315H4.9v-5.315Zm-88.155 2.876a1.241 1.241 0 1 0-1.242 1.242 1.24 1.24 0 0 0 1.242-1.242m-4.885 0a1.241 1.241 0 1 0-1.243 1.242 1.24 1.24 0 0 0 1.243-1.242m-4.886 0a1.241 1.241 0 1 0-1.242 1.242 1.24 1.24 0 0 0 1.242-1.242" fill="#ff3900" transform="scale(2)"></path>
    <path d="M104.118 101.812v2.439l-2.415-1.2a2.586 2.586 0 0 1 2.415-1.239" fill="#ffc077" transform="scale(2)"></path>
    <path d="m94.811 145.486 5.744 4.069-24.428 0-5.744-4.069z" fill="#decd03" transform="scale(2)"></path>
    <path d="M83.923 52.167a.777.777 0 0 1 .115 1.155l-2.2 2.324-2.275 2.4-4.278 4.523-.252.035a1.519 1.519 0 0 0-.335-.276 1.864 1.864 0 0 0-.91-.286v-.007L79.6 55.81l3.3-3.542a.774.774 0 0 1 .569-.248.782.782 0 0 1 .454.147" fill="#ff3900" transform="scale(2)"></path>
    <path d="m78.974 91.723 2.626 1.309c-.513 1.595-2.628 1.071-2.628 1.071Z" fill="#ffc077" transform="scale(2)"></path>
    <path d="M77.812 43.76v2.44L75.4 45a2.586 2.586 0 0 1 2.412-1.24" fill="#ffc077" transform="scale(2)"></path>
    <path d="M76.123 66.251c.377 1.044-.785 2.1-.785 2.1-.89-.611-2.722.223-3.249 1.221-1.6-.216-1.56-1.05-1-1.835a4.984 4.984 0 0 1 1.406-1.274c1.252-.753 3.251-1.255 3.628-.212" fill="#ffc077" transform="scale(2)"></path>
    <path d="M74.867 64.384c1.424.807 1.256 1.867 1.256 1.867-.377-1.043-2.376-.541-3.629.21a4.984 4.984 0 0 0-1.406 1.274l-.182-.123a2.236 2.236 0 0 1-.433-.066c-1.179-.293-.478-1.361-.429-1.438a7.859 7.859 0 0 0 1.769-.946 1.587 1.587 0 0 0 .394-.443l.115.017s1.592-.893 2.545-.352" fill="#ffc077" transform="scale(2)"></path>
    <path d="M72.089 69.57c.527-1 2.359-1.832 3.249-1.221s.387 2.275-1.72 4.662a5.589 5.589 0 0 1-4.289 2.2l-1.5 3.047v.042h-7.72v-.04l3.221-6.823 2.99-5.7a1.96 1.96 0 0 1 .8-.729 13.419 13.419 0 0 1 4.219-1.431 1.438 1.438 0 0 1 .475.049.724.724 0 0 1 .394 1.089 1.587 1.587 0 0 1-.394.443 7.859 7.859 0 0 1-1.769.946c-.192.077-.373.15-.534.21l.028.076-4.983 5.27a.774.774 0 0 0 .115 1.152.786.786 0 0 0 .457.146.777.777 0 0 0 .569-.248l4.652-4.92.125-.248a2.236 2.236 0 0 0 .433.066l.181.123c-.559.789-.597 1.623 1.001 1.839" fill="#ffc077" transform="scale(2)"></path>
    <path d="M75.034 62.608c.653.754-.167 1.776-.167 1.776-.953-.541-2.541.349-2.541.349l-.115-.017a.724.724 0 0 0-.394-1.089 1.438 1.438 0 0 0-.475-.049 3.011 3.011 0 0 1 2.447-1.529 1.864 1.864 0 0 1 .91.286 1.519 1.519 0 0 1 .335.273" fill="#ffc077" transform="scale(2)"></path>
    <path d="M74.7 138.444v.4H61.239a3.584 3.584 0 0 1-2.966-1.563l.052-.035c.454-3.5 2.719-5.214 5.42-5.214h.328a.736.736 0 0 0 .736-.736v-1.166a2.829 2.829 0 0 1-1.577-2.54v-1.577a2.834 2.834 0 1 1 5.667 0v1.577a2.832 2.832 0 0 1-1.58 2.54v1.17a.737.737 0 0 0 .736.736 6.069 6.069 0 0 1 6.268 6.411Z" fill="#ff3900" transform="scale(2)"></path>
    <path d="M74.7 119.763v18.681h-.376a6.069 6.069 0 0 0-6.268-6.411.737.737 0 0 1-.736-.736v-1.166a2.832 2.832 0 0 0 1.58-2.54v-1.577a2.834 2.834 0 0 0-5.667 0v1.577a2.829 2.829 0 0 0 1.577 2.54v1.169a.736.736 0 0 1-.736.736h-.328c-2.7 0-4.966 1.717-5.42 5.214l-.052.035a3.574 3.574 0 0 1-.632-2.035v-15.487z" fill="#ffc077" transform="scale(2)"></path>
    <path d="M74.7 119.25v.513H58.242v-.373c0-4.4 2.477-6.55 5.5-6.55h.328a.737.737 0 0 0 .736-.737v-1.165a2.831 2.831 0 0 1-1.577-2.541v-1.577a2.834 2.834 0 1 1 5.667 0v1.58a2.834 2.834 0 0 1-1.58 2.541v1.159a.739.739 0 0 0 .736.737 6.069 6.069 0 0 1 6.268 6.41Z" fill="#ff3900" transform="scale(2)"></path>
    <path d="M74.7 100.406v.4H58.242v-.259c0-4.4 2.477-6.55 5.5-6.55h.328a.737.737 0 0 0 .736-.736v-1.168a2.831 2.831 0 0 1-1.577-2.54v-1.578a2.834 2.834 0 1 1 5.667 0v1.578a2.833 2.833 0 0 1-1.58 2.54v1.166a.737.737 0 0 0 .736.736 6.069 6.069 0 0 1 6.268 6.411Z" fill="#ff3900" transform="scale(2)"></path>
    <path d="m70.473 67.546-.125.248-4.648 4.92a.777.777 0 0 1-.569.248.786.786 0 0 1-.457-.146.774.774 0 0 1-.115-1.152l4.983-5.27-.028-.076c.161-.06.342-.133.534-.21-.048.077-.754 1.145.425 1.438" fill="#ff3900" transform="scale(2)"></path>
    <path d="M52.669 33.671 55.3 34.98c-.509 1.594-2.627 1.071-2.627 1.071Z" fill="#ffc077" transform="scale(2)"></path>
    <path d="M54.152 84.82v11.189h-4.725v-.116l-3.221-3.8a12.4 12.4 0 0 0 1.008-4.725c0-1.888-1.242-4.244-2.314-5.929l4.527-3.139Z" fill="#ffc077" transform="scale(2)"></path>
    <path d="M43.958 30.464v39.267l-.049.1a8.908 8.908 0 0 0-2.076-.645l.031-.157V30.464Z" fill="#decd03" transform="scale(2)"></path>
    <path d="M36.661 60.5c.569 1.134-.063 2.782-1.263 2.932a2.149 2.149 0 0 1-1.246-.2 8.545 8.545 0 0 0 1.12-2.387c.147-.353.387-.737.621-1.225a2.146 2.146 0 0 1 .768.88" fill="#ff3900" transform="scale(2)"></path>
    <path d="m32.672 67.818 3.856 1.215s-2.121 2.345-7.841 2.652a18.613 18.613 0 0 1-10.208-2.652l4.858-2.007-3.151-3.266c.021 0-.415-3.48-.394-3.483.6-.077 4.826 3.675 5.171 3.179l.936.216a11.558 11.558 0 0 0 2.98 1.466l.035.011c.307.115 2.617.963 3.667 1.284h.019l.01.192Z" fill="#ffc077" transform="scale(2)"></path>
    <path d="M34.061 60.057a2.22 2.22 0 0 1-.352.206s-1.2-.262-1.641-.3c-.352-.031-2.348.067-3.116.112-.188.007-.3.014-.3.014a15.065 15.065 0 0 0 1.577 1.18 2.379 2.379 0 0 0 2.08.363 8.278 8.278 0 0 0 1.752-1.575m-15.138-4.92c.547-.6 1.308-.269 1.8.066a2.8 2.8 0 0 0 1.742.53c3.287-.216 3.981-5.126 4.187-6.871 0 0 4.506.488 5.961 1.207.139.07.279.147.415.224a6.524 6.524 0 0 1 2.953 3.779l-.035.1c-.091.262-.171.436-.171.436a5.383 5.383 0 0 1 .46 2.956 8.266 8.266 0 0 1-.694 2.153c-.311.66-.639 1.176-.834 1.651a11.548 11.548 0 0 1-1.508 3.21 2.574 2.574 0 0 1-.694.58 2.29 2.29 0 0 1-.81.275 6.32 6.32 0 0 1-2.335-.164 6.716 6.716 0 0 1-.443-.118l-.035-.011a11.589 11.589 0 0 1-2.98-1.466l-1.633-.216a2.478 2.478 0 0 0 .234-2.8c-.6-.942-1.033-1.319-2.555-.645a2.105 2.105 0 0 0-.872.848l-.105.474c-1.022-.589-3.3-3.667-2.324-5.761a1.572 1.572 0 0 1 .276-.437" fill="#ffc077" transform="scale(2)"></path>
    <path d="M26.645 48.844a.03.03 0 0 1 0 .018c-.216 1.874-1.005 7.388-4.945 6.84a1.56 1.56 0 0 1-.757-.332c-.454-.363-1.382-.942-2.024-.233a1.674 1.674 0 0 0-.28.436c-.977 2.094.859 3.811 1.881 4.4l.824.566a2.134 2.134 0 0 0-.056 2.059c.429 1.211 1.413 1.074 2.164 1.092l-.119 3.336-4.858 2.007A22.223 22.223 0 0 0 12.362 71c-1.811-5.032 4.149-13.341 5.807-18.23.174-.51-.039-4.244 2.694-7.325a11.643 11.643 0 0 1 4.742-2.293q.3-.078.576-.139a8.653 8.653 0 0 1 9.245 4.456c2.338 4.764.551 6.6.551 6.6a6.522 6.522 0 0 0-2.952-3.779 10.086 10.086 0 0 0-4.279-2.077c-2.146-.346-2.115.509-2.101.631" fill="#ff3900" transform="scale(2)"></path>
    <path d="M33.025 50.293a9.234 9.234 0 0 0-.416-.224c-1.455-.719-5.96-1.207-5.96-1.207a.03.03 0 0 0 0-.018c-.014-.122-.045-.977 2.1-.628a10.086 10.086 0 0 1 4.276 2.077" fill="#ff3900" transform="scale(2)"></path>
    <path d="m32.533 65.211.066 1.222h-.018c-1.05-.321-3.36-1.169-3.667-1.284.146.045.3.083.443.118a6.318 6.318 0 0 0 2.335.164 2.284 2.284 0 0 0 .809-.275Z" fill="#ff3900" transform="scale(2)"></path>
    <path d="M23.267 63.519a1.935 1.935 0 0 1-2.087-1.379 1.865 1.865 0 0 1 .168-1.6 1.3 1.3 0 0 1 .6-.527 1.775 1.775 0 0 1 2.526.816 2.1 2.1 0 0 1-.174 2.056 1.417 1.417 0 0 1-.984.631c-.016-.001-.031.003-.049.003" fill="#decd03" transform="scale(2)"></path>
    <path d="m18.479 86.087-.307 9.922-10.134 0 0-10.337z" fill="#ffc077" transform="scale(2)"></path>
    <path d="M13.377 26.786a1.241 1.241 0 1 1-1.239 1.239 1.24 1.24 0 0 1 1.239-1.239" fill="#ffc077" transform="scale(2)"></path>
    <path d="M8.492 26.786a1.241 1.241 0 1 1-1.239 1.239 1.24 1.24 0 0 1 1.239-1.239" fill="#decd03" transform="scale(2)"></path>
    <path d="M138.112 141.714a4.575 4.575 0 0 1-2.307.621H58.734a4.579 4.579 0 0 1-4.582-4.582V82.884a4.584 4.584 0 0 1 4.582-4.584h77.071a4.584 4.584 0 0 1 4.586 4.586v54.869a4.581 4.581 0 0 1-2.279 3.959" fill="none" stroke="#ff3900" stroke-linecap="round" stroke-linejoin="round" stroke-width=".698" transform="scale(2)"></path>
    <path d="M74.7 138.845H61.239a3.6 3.6 0 0 1-3.6-3.6V85.386a3.6 3.6 0 0 1 3.6-3.6H133.3a3.6 3.6 0 0 1 3.6 3.6v49.861a3.6 3.6 0 0 1-3.6 3.6H74.7Z" fill="none" stroke="#ff3900" stroke-linecap="round" stroke-linejoin="round" stroke-width=".698" transform="scale(2)"></path>
    <path d="m92.755 80.336 5.943 0" fill="none" stroke="#ff3900" stroke-linecap="round" stroke-linejoin="round" stroke-width=".698" transform="scale(2)"></path>
    <path d="m74.699 81.788 0 18.618 0 .398 0 18.446 0 .513 0 18.681 0 .401" fill="none" stroke="#ff3900" stroke-linecap="round" stroke-linejoin="round" stroke-width=".698" transform="scale(2)"></path>
    <path d="m120.066 81.788 0 18.618 0 .398 0 18.446 0 .513 0 18.681 0 .401" fill="none" stroke="#ff3900" stroke-linecap="round" stroke-linejoin="round" stroke-width=".698" transform="scale(2)"></path>
    <path d="m57.641 100.804.601 0 16.457 0" fill="none" stroke="#ff3900" stroke-linecap="round" stroke-linejoin="round" stroke-width=".698" transform="scale(2)"></path>
    <path d="m57.641 119.763.601 0 16.457 0" fill="none" stroke="#ff3900" stroke-linecap="round" stroke-linejoin="round" stroke-width=".698" transform="scale(2)"></path>
    <path d="M74.323 100.406A6.069 6.069 0 0 0 68.055 94a.737.737 0 0 1-.736-.736v-1.171a2.833 2.833 0 0 0 1.58-2.54v-1.578a2.834 2.834 0 0 0-5.667 0v1.578a2.831 2.831 0 0 0 1.577 2.54v1.166a.737.737 0 0 1-.736.736h-.328c-3.026 0-5.5 2.153-5.5 6.55" fill="none" stroke="#ff3900" stroke-linecap="round" stroke-linejoin="round" stroke-width=".698" transform="scale(2)"></path>
    <path d="M74.323 119.25a6.069 6.069 0 0 0-6.268-6.41.739.739 0 0 1-.736-.737v-1.165A2.834 2.834 0 0 0 68.9 108.4v-1.58a2.834 2.834 0 0 0-5.667 0v1.58a2.831 2.831 0 0 0 1.577 2.541v1.159a.737.737 0 0 1-.736.737h-.328c-3.026 0-5.5 2.153-5.5 6.55" fill="none" stroke="#ff3900" stroke-linecap="round" stroke-linejoin="round" stroke-width=".698" transform="scale(2)"></path>
    <path d="M74.323 138.444a6.069 6.069 0 0 0-6.268-6.411.737.737 0 0 1-.736-.736v-1.166a2.832 2.832 0 0 0 1.58-2.54v-1.577a2.834 2.834 0 0 0-5.667 0v1.577a2.829 2.829 0 0 0 1.577 2.54v1.169a.736.736 0 0 1-.736.736h-.328c-2.7 0-4.966 1.717-5.42 5.214" fill="none" stroke="#ff3900" stroke-linecap="round" stroke-linejoin="round" stroke-width=".698" transform="scale(2)"></path>
    <path d="m136.901 100.804-.684 0-16.109 0" fill="none" stroke="#ff3900" stroke-linecap="round" stroke-linejoin="round" stroke-width=".698" transform="scale(2)"></path>
    <path d="m136.901 119.763-.684 0-16.109 0" fill="none" stroke="#ff3900" stroke-linecap="round" stroke-linejoin="round" stroke-width=".698" transform="scale(2)"></path>
    <path d="M120.136 100.406A6.068 6.068 0 0 1 126.4 94a.748.748 0 0 0 .524-.216.74.74 0 0 0 .216-.52v-1.171a2.834 2.834 0 0 1-1.581-2.54v-1.578a2.834 2.834 0 0 1 5.668 0v1.578a2.834 2.834 0 0 1-1.581 2.54v1.166a.739.739 0 0 0 .74.736h.324c3.029 0 5.507 2.153 5.507 6.55" fill="none" stroke="#ff3900" stroke-linecap="round" stroke-linejoin="round" stroke-width=".698" transform="scale(2)"></path>
    <path d="M120.136 119.25a6.068 6.068 0 0 1 6.264-6.41.744.744 0 0 0 .524-.217.736.736 0 0 0 .216-.52v-1.165a2.834 2.834 0 0 1-1.581-2.541v-1.577a2.834 2.834 0 0 1 5.668 0v1.58a2.834 2.834 0 0 1-1.581 2.541v1.159a.74.74 0 0 0 .74.737h.324c3.029 0 5.507 2.153 5.507 6.55" fill="none" stroke="#ff3900" stroke-linecap="round" stroke-linejoin="round" stroke-width=".698" transform="scale(2)"></path>
    <path d="M120.136 138.444a6.068 6.068 0 0 1 6.264-6.411.737.737 0 0 0 .74-.736v-1.166a2.833 2.833 0 0 1-1.581-2.54v-1.577a2.834 2.834 0 0 1 5.668 0v1.577a2.833 2.833 0 0 1-1.581 2.54v1.169a.739.739 0 0 0 .74.736h.324c2.7 0 4.969 1.717 5.423 5.214" fill="none" stroke="#ff3900" stroke-linecap="round" stroke-linejoin="round" stroke-width=".698" transform="scale(2)"></path>
    <path d="m120.066 78.298 0-12.588 0-5.314 74.838 0 0 5.314 0 44.607-54.513 0" fill="none" stroke="#ff3900" stroke-linecap="round" stroke-linejoin="round" stroke-width=".698" transform="scale(2)"></path>
    <path d="m120.066 65.71 74.838 0" fill="none" stroke="#ff3900" stroke-linecap="round" stroke-linejoin="round" stroke-width=".698" transform="scale(2)"></path>
    <path d="M124.9 63.271a1.241 1.241 0 1 1-1.242-1.239 1.24 1.24 0 0 1 1.242 1.239" fill="none" stroke="#ff3900" stroke-linecap="round" stroke-linejoin="round" stroke-width=".698" transform="scale(2)"></path>
    <path d="M129.782 63.271a1.241 1.241 0 1 1-1.243-1.239 1.24 1.24 0 0 1 1.243 1.239" fill="none" stroke="#ff3900" stroke-linecap="round" stroke-linejoin="round" stroke-width=".698" transform="scale(2)"></path>
    <path d="M134.667 63.271a1.241 1.241 0 1 1-1.242-1.239 1.239 1.239 0 0 1 1.242 1.239" fill="none" stroke="#ff3900" stroke-linecap="round" stroke-linejoin="round" stroke-width=".698" transform="scale(2)"></path>
    <path d="m54.152 96.009-4.725 0-5.469 0-25.786 0-10.134 0-3.134 0 0-65.545 0-5.315 102.756 0 0 5.315 0 47.834" fill="none" stroke="#ff3900" stroke-linecap="round" stroke-linejoin="round" stroke-width=".698" transform="scale(2)"></path>
    <path d="m4.904 30.464 36.96 0 2.094 0 63.702 0" fill="none" stroke="#ff3900" stroke-linecap="round" stroke-linejoin="round" stroke-width=".698" transform="scale(2)"></path>
    <path d="M9.734 28.025a1.241 1.241 0 1 1-1.242-1.239 1.241 1.241 0 0 1 1.242 1.239" fill="none" stroke="#ff3900" stroke-linecap="round" stroke-linejoin="round" stroke-width=".698" transform="scale(2)"></path>
    <path d="M14.62 28.025a1.241 1.241 0 1 1-1.243-1.239 1.241 1.241 0 0 1 1.243 1.239" fill="none" stroke="#ff3900" stroke-linecap="round" stroke-linejoin="round" stroke-width=".698" transform="scale(2)"></path>
    <path d="M19.505 28.025a1.241 1.241 0 1 1-1.242-1.239 1.241 1.241 0 0 1 1.242 1.239" fill="none" stroke="#ff3900" stroke-linecap="round" stroke-linejoin="round" stroke-width=".698" transform="scale(2)"></path>
    <path d="m88.048 164.087-30.721-21.752v1.2a5.1 5.1 0 0 0 2.157 4.167l36.5 25.845a9.029 9.029 0 0 0 5.2 1.654h75.113a3.684 3.684 0 0 0 3.686-3.685v-.154" fill="none" stroke="#ff3900" stroke-linecap="round" stroke-linejoin="round" stroke-width=".698" transform="scale(2)"></path>
    <path d="m138.112 141.714 41.866 29.645-81.66 0" fill="none" stroke="#ff3900" stroke-linecap="round" stroke-linejoin="round" stroke-width=".698" transform="scale(2)"></path>
    <path d="m131.851 74.756 51.265 0" fill="none" stroke="#ff3900" stroke-linecap="round" stroke-linejoin="round" stroke-width=".698" transform="scale(2)"></path>
    <path d="m140.925 86.272 42.191 0" fill="none" stroke="#ff3900" stroke-linecap="round" stroke-linejoin="round" stroke-width=".698" transform="scale(2)"></path>
    <path d="m140.925 97.788 42.191 0" fill="none" stroke="#ff3900" stroke-linecap="round" stroke-linejoin="round" stroke-width=".698" transform="scale(2)"></path>
    <path d="m34.759 127.696 16.974 0" fill="none" stroke="#ff3900" stroke-linecap="round" stroke-linejoin="round" stroke-width=".698" transform="scale(2)"></path>
    <path d="m142.942 127.696 23.953 0" fill="none" stroke="#ff3900" stroke-linecap="round" stroke-linejoin="round" stroke-width=".698" transform="scale(2)"></path>
    <path d="m88.048 164.087 10.27 7.272 0 3.284" fill="none" stroke="#ff3900" stroke-linecap="round" stroke-linejoin="round" stroke-width=".698" transform="scale(2)"></path>
    <path d="m117.512 168.568-7.946-5.626 31.872 0" fill="none" stroke="#ff3900" stroke-linecap="round" stroke-linejoin="round" stroke-width=".698" transform="scale(2)"></path>
    <path d="m141.518 162.942 7.946 5.626-31.872 0" fill="none" stroke="#ff3900" stroke-linecap="round" stroke-linejoin="round" stroke-width=".698" transform="scale(2)"></path>
    <path d="m157.473 160.206-21.965 0-44.34 0-15.041-10.651-5.744-4.069 24.428 0 41.877 0 14.332 10.152z" fill="none" stroke="#ff3900" stroke-linecap="round" stroke-linejoin="round" stroke-width=".698" transform="scale(2)"></path>
    <path d="m76.127 149.555 24.428 0 32.877 0" fill="none" stroke="#ff3900" stroke-linecap="round" stroke-linejoin="round" stroke-width=".698" transform="scale(2)"></path>
    <path d="m93.576 155.837 35.944 0 21.361 0" fill="none" stroke="#ff3900" stroke-linecap="round" stroke-linejoin="round" stroke-width=".698" transform="scale(2)"></path>
    <path d="m94.811 145.486 5.744 4.069 5.988 4.241" fill="none" stroke="#ff3900" stroke-linecap="round" stroke-linejoin="round" stroke-width=".698" transform="scale(2)"></path>
    <path d="m123.776 151.768 5.744 4.069 5.988 4.24" fill="none" stroke="#ff3900" stroke-linecap="round" stroke-linejoin="round" stroke-width=".698" transform="scale(2)"></path>
    <path d="M105.57 115.4a7.253 7.253 0 0 1 7.252 7.255.405.405 0 0 1 0 .07 7.248 7.248 0 0 1-14.5 0 .405.405 0 0 1 0-.07 7.253 7.253 0 0 1 7.248-7.255" fill="none" stroke="#ff3900" stroke-linecap="round" stroke-linejoin="round" stroke-width=".698" transform="scale(2)"></path>
    <path d="m105.57 110.802 0 4.599 0 7.325 0 7.182 0 4.045" fill="none" stroke="#ff3900" stroke-linecap="round" stroke-linejoin="round" stroke-width=".698" transform="scale(2)"></path>
    <path d="m117.145 122.726-4.327 0-7.248 0-7.248 0-4.328 0" fill="none" stroke="#ff3900" stroke-linecap="round" stroke-linejoin="round" stroke-width=".698" transform="scale(2)"></path>
    <path d="M79.17 55.677a7.252 7.252 0 0 1 14.5 0 .611.611 0 0 1 0 .074 7.253 7.253 0 0 1-14.106 2.3" fill="none" stroke="#ff3900" stroke-linecap="round" stroke-linejoin="round" stroke-width=".698" transform="scale(2)"></path>
    <path d="m86.422 43.826 0 4.6 0 7.325 0 7.178 0 4.048" fill="none" stroke="#ff3900" stroke-linecap="round" stroke-linejoin="round" stroke-width=".698" transform="scale(2)"></path>
    <path d="m79.529 55.751-.359 0-4.324 0" fill="none" stroke="#ff3900" stroke-linecap="round" stroke-linejoin="round" stroke-width=".698" transform="scale(2)"></path>
    <path d="m97.997 55.751-4.327 0-7.248 0-4.471 0" fill="none" stroke="#ff3900" stroke-linecap="round" stroke-linejoin="round" stroke-width=".698" transform="scale(2)"></path>
    <path d="m78.974 94.103 0 4.687 11.478-1.347 13.666-1.605 0 5.974 0 2.439-2.415-1.204-11.251-5.604-8.85-4.411-2.628-1.309z" fill="none" stroke="#ff3900" stroke-linecap="round" stroke-linejoin="round" stroke-width=".698" transform="scale(2)"></path>
    <path d="M78.974 94.1s2.115.524 2.628-1.071" fill="none" stroke="#ff3900" stroke-linecap="round" stroke-linejoin="round" stroke-width=".698" transform="scale(2)"></path>
    <path d="M101.7 103.047a2.586 2.586 0 0 1 2.415-1.235" fill="none" stroke="#ff3900" stroke-linecap="round" stroke-linejoin="round" stroke-width=".698" transform="scale(2)"></path>
    <path d="m52.669 36.051 0 4.69 11.481-1.35 13.662-1.606 0 5.975 0 2.439-2.415-1.204-11.247-5.604-8.854-4.411-2.627-1.309z" fill="none" stroke="#ff3900" stroke-linecap="round" stroke-linejoin="round" stroke-width=".698" transform="scale(2)"></path>
    <path d="M52.669 36.051s2.118.523 2.627-1.071" fill="none" stroke="#ff3900" stroke-linecap="round" stroke-linejoin="round" stroke-width=".698" transform="scale(2)"></path>
    <path d="M75.4 45a2.586 2.586 0 0 1 2.415-1.235" fill="none" stroke="#ff3900" stroke-linecap="round" stroke-linejoin="round" stroke-width=".698" transform="scale(2)"></path>
    <path d="m93.98 119.31-8.508 0 0-3.49 0-5.018 5.019 0 3.489 0z" fill="none" stroke="#ff3900" stroke-linecap="round" stroke-linejoin="round" stroke-width=".698" transform="scale(2)"></path>
    <path d="m90.491 115.82-5.019 0-3.489 0 0-8.508 8.508 0 0 3.49z" fill="none" stroke="#ff3900" stroke-linecap="round" stroke-linejoin="round" stroke-width=".698" transform="scale(2)"></path>
    <path d="m81.983 107.312 3.489 3.49" fill="none" stroke="#ff3900" stroke-linecap="round" stroke-linejoin="round" stroke-width=".698" transform="scale(2)"></path>
    <path d="m90.491 107.312 3.489 3.49" fill="none" stroke="#ff3900" stroke-linecap="round" stroke-linejoin="round" stroke-width=".698" transform="scale(2)"></path>
    <path d="m90.491 115.82 3.489 3.49" fill="none" stroke="#ff3900" stroke-linecap="round" stroke-linejoin="round" stroke-width=".698" transform="scale(2)"></path>
    <path d="m81.983 115.82 3.489 3.49" fill="none" stroke="#ff3900" stroke-linecap="round" stroke-linejoin="round" stroke-width=".698" transform="scale(2)"></path>
    <path d="m62.579 64.451-8.508 0 0-3.49 0-5.018 5.019 0 3.489 0z" fill="none" stroke="#ff3900" stroke-linecap="round" stroke-linejoin="round" stroke-width=".698" transform="scale(2)"></path>
    <path d="m59.09 60.961-5.019 0-3.489 0 0-8.508 8.508 0 0 3.49z" fill="none" stroke="#ff3900" stroke-linecap="round" stroke-linejoin="round" stroke-width=".698" transform="scale(2)"></path>
    <path d="m50.582 52.453 3.489 3.49" fill="none" stroke="#ff3900" stroke-linecap="round" stroke-linejoin="round" stroke-width=".698" transform="scale(2)"></path>
    <path d="m59.09 52.453 3.489 3.49" fill="none" stroke="#ff3900" stroke-linecap="round" stroke-linejoin="round" stroke-width=".698" transform="scale(2)"></path>
    <path d="m59.09 60.961 3.489 3.49" fill="none" stroke="#ff3900" stroke-linecap="round" stroke-linejoin="round" stroke-width=".698" transform="scale(2)"></path>
    <path d="m50.582 60.961 3.489 3.49" fill="none" stroke="#ff3900" stroke-linecap="round" stroke-linejoin="round" stroke-width=".698" transform="scale(2)"></path>
    <path d="M81.634 130.194s-1.428.58-1.5 1.592 1.232 1.015 1.811.436a7.623 7.623 0 0 0-.216-2.052 3.147 3.147 0 0 0-.255-.667c-.541-1.012-1.448-.869-1.773-.181" fill="none" stroke="#ff3900" stroke-linecap="round" stroke-linejoin="round" stroke-width=".698" transform="scale(2)"></path>
    <path d="M109.245 88.3s-1.428.579-1.5 1.595 1.232 1.016 1.811.436a7.641 7.641 0 0 0-.216-2.055 3.013 3.013 0 0 0-.255-.663c-.541-1.016-1.448-.869-1.773-.182" fill="none" stroke="#ff3900" stroke-linecap="round" stroke-linejoin="round" stroke-width=".698" transform="scale(2)"></path>
    <path d="m83.727 129.908 1.745 0" fill="none" stroke="#ff3900" stroke-linecap="round" stroke-linejoin="round" stroke-width=".698" transform="scale(2)"></path>
    <path d="m83.727 131.304 1.745 0" fill="none" stroke="#ff3900" stroke-linecap="round" stroke-linejoin="round" stroke-width=".698" transform="scale(2)"></path>
    <path d="M87.1 129.472c.087-1.1 2.712-1.12 2.206.785-.346 1.295-2.154 2.356-2.154 2.356h2.96" fill="none" stroke="#ff3900" stroke-linecap="round" stroke-linejoin="round" stroke-width=".698" transform="scale(2)"></path>
    <path d="M99.17 87.521c.09-1.095 2.715-1.12 2.2.782-.345 1.3-2.15 2.359-2.15 2.359h2.956" fill="none" stroke="#ff3900" stroke-linecap="round" stroke-linejoin="round" stroke-width=".698" transform="scale(2)"></path>
    <path d="M93.122 86.112c.059-.737 1.822-.751 1.48.527-.231.865-1.442 1.58-1.442 1.58h1.982" fill="none" stroke="#ff3900" stroke-linecap="round" stroke-linejoin="round" stroke-width=".698" transform="scale(2)"></path>
    <path d="M92.04 131.974c1.2 1.389 3.033.513 2.411-.9s-2.299-.402-2.411.9" fill="none" stroke="#ff3900" stroke-linecap="round" stroke-linejoin="round" stroke-width=".698" transform="scale(2)"></path>
    <path d="M93.143 128.139c-.719.764-2.3 2.443-1.1 3.835" fill="none" stroke="#ff3900" stroke-linecap="round" stroke-linejoin="round" stroke-width=".698" transform="scale(2)"></path>
    <path d="m104.526 87.235 0 1.114 0 1.113" fill="none" stroke="#ff3900" stroke-linecap="round" stroke-linejoin="round" stroke-width=".698" transform="scale(2)"></path>
    <path d="m103.284 88.349 1.242 0 1.152 0" fill="none" stroke="#ff3900" stroke-linecap="round" stroke-linejoin="round" stroke-width=".698" transform="scale(2)"></path>
    <path d="M98.185 85.574c-1.029.314-1.884 2.272-1.563 3.65A3.436 3.436 0 0 0 98.7 91.9" fill="none" stroke="#ff3900" stroke-linecap="round" stroke-linejoin="round" stroke-width=".698" transform="scale(2)"></path>
    <path d="M110.33 85.574c1.029.314 1.884 2.272 1.563 3.65a3.442 3.442 0 0 1-2.076 2.674" fill="none" stroke="#ff3900" stroke-linecap="round" stroke-linejoin="round" stroke-width=".698" transform="scale(2)"></path>
    <path d="m41.864 30.464 0 38.569" fill="none" stroke="#ff3900" stroke-linecap="round" stroke-linejoin="round" stroke-width=".698" transform="scale(2)"></path>
    <path d="m43.958 30.464 0 39.267" fill="none" stroke="#ff3900" stroke-linecap="round" stroke-linejoin="round" stroke-width=".698" transform="scale(2)"></path>
    <path d="M18.479 84.321v1.766l-10.441-.415-1.148-.045s.077-8.139 2.226-11.82A7.931 7.931 0 0 1 12.362 71a22.223 22.223 0 0 1 6.117-1.971 18.613 18.613 0 0 0 10.208 2.652c5.72-.307 7.841-2.652 7.841-2.652a18.845 18.845 0 0 1 5.305.157 8.908 8.908 0 0 1 2.076.645 5.156 5.156 0 0 1 1.379.908 37.329 37.329 0 0 1 5.2 6.815l-1.064.74-4.524 3.145" fill="none" stroke="#ff3900" stroke-linecap="round" stroke-linejoin="round" stroke-width=".698" transform="scale(2)"></path>
    <path d="m8.038 85.672 0 10.337" fill="none" stroke="#ff3900" stroke-linecap="round" stroke-linejoin="round" stroke-width=".698" transform="scale(2)"></path>
    <path d="m18.479 86.087-.307 9.922" fill="none" stroke="#ff3900" stroke-linecap="round" stroke-linejoin="round" stroke-width=".698" transform="scale(2)"></path>
    <path d="M43.361 79.261s.719.894 1.539 2.178c1.072 1.685 2.311 4.041 2.314 5.929a12.4 12.4 0 0 1-1.008 4.725 15.612 15.612 0 0 1-2.248 3.8" fill="none" stroke="#ff3900" stroke-linecap="round" stroke-linejoin="round" stroke-width=".698" transform="scale(2)"></path>
    <path d="M35.436 85.672s.265 4.948-1.581 7.171" fill="none" stroke="#ff3900" stroke-linecap="round" stroke-linejoin="round" stroke-width=".698" transform="scale(2)"></path>
    <path d="M34.77 55.458a3.175 3.175 0 0 0-1-.252 1.837 1.837 0 0 0-.974.06" fill="none" stroke="#ff3900" stroke-linecap="round" stroke-linejoin="round" stroke-width=".698" transform="scale(2)"></path>
    <path d="M27.431 55.1a8.982 8.982 0 0 1 1.186-.21 1.848 1.848 0 0 1 .974.074" fill="none" stroke="#ff3900" stroke-linecap="round" stroke-linejoin="round" stroke-width=".698" transform="scale(2)"></path>
    <path d="M32.341 54.124a2.074 2.074 0 0 0 .017 1.812c.206.691.866 1.427.75 2.08s-1.319.914-2.024.722" fill="none" stroke="#ff3900" stroke-linecap="round" stroke-linejoin="round" stroke-width=".698" transform="scale(2)"></path>
    <path d="M28.879 65.138a11.558 11.558 0 0 1-2.98-1.466" fill="none" stroke="#ff3900" stroke-linecap="round" stroke-linejoin="round" stroke-width=".698" transform="scale(2)"></path>
    <path d="M35.537 59.715c-.31.66-.638 1.176-.834 1.651a11.574 11.574 0 0 1-1.507 3.21 2.578 2.578 0 0 1-.7.58 2.284 2.284 0 0 1-.809.275 6.318 6.318 0 0 1-2.335-.164 6.554 6.554 0 0 1-.443-.118" fill="none" stroke="#ff3900" stroke-linecap="round" stroke-linejoin="round" stroke-width=".698" transform="scale(2)"></path>
    <path d="M35.942 54.17c-.091.262-.171.436-.171.436a5.379 5.379 0 0 1 .461 2.956 8.3 8.3 0 0 1-.7 2.153" fill="none" stroke="#ff3900" stroke-linecap="round" stroke-linejoin="round" stroke-width=".698" transform="scale(2)"></path>
    <path d="M26.551 53.849a4.822 4.822 0 0 1 2.946-.716c1.13.192 1.193.583 1.2.6" fill="none" stroke="#ff3900" stroke-linecap="round" stroke-linejoin="round" stroke-width=".698" transform="scale(2)"></path>
    <path d="M35.572 53.245a3.2 3.2 0 0 0-.991.059 9.3 9.3 0 0 0-1.427.391" fill="none" stroke="#ff3900" stroke-linecap="round" stroke-linejoin="round" stroke-width=".698" transform="scale(2)"></path>
    <path d="M34.065 60.054a2.22 2.22 0 0 1-.352.206 4.1 4.1 0 0 1-1.525.318 14.814 14.814 0 0 1-3.232-.5c-.227-.056-.384-.1-.436-.112" fill="none" stroke="#ff3900" stroke-linecap="round" stroke-linejoin="round" stroke-width=".698" transform="scale(2)"></path>
    <path d="M28.5 59.963s.059.049.154.132a15.065 15.065 0 0 0 1.577 1.18 2.379 2.379 0 0 0 2.08.363 8.278 8.278 0 0 0 1.755-1.581" fill="none" stroke="#ff3900" stroke-linecap="round" stroke-linejoin="round" stroke-width=".698" transform="scale(2)"></path>
    <path d="m32.533 65.211.066 1.222.01.192.063 1.193" fill="none" stroke="#ff3900" stroke-linecap="round" stroke-linejoin="round" stroke-width=".698" transform="scale(2)"></path>
    <path d="m36.528 69.033-3.856-1.215" fill="none" stroke="#ff3900" stroke-linecap="round" stroke-linejoin="round" stroke-width=".698" transform="scale(2)"></path>
    <path d="m23.456 63.69-.119 3.336-4.858 2.007" fill="none" stroke="#ff3900" stroke-linecap="round" stroke-linejoin="round" stroke-width=".698" transform="scale(2)"></path>
    <path d="M21.215 55.608s-1.413-1.438-2.292-.471a1.674 1.674 0 0 0-.28.436c-.977 2.094 1.11 4.393 2.7 4.966" fill="none" stroke="#ff3900" stroke-linecap="round" stroke-linejoin="round" stroke-width=".698" transform="scale(2)"></path>
    <path d="m18.923 55.137 0 .006" fill="none" stroke="#ff3900" stroke-linecap="round" stroke-linejoin="round" stroke-width=".698" transform="scale(2)"></path>
    <path d="M24.3 62.884a2.08 2.08 0 0 0 .174-2.056 1.78 1.78 0 0 0-2.526-.816 1.338 1.338 0 0 0-.6.527 1.865 1.865 0 0 0-.168 1.6 1.945 1.945 0 0 0 2.087 1.379l.042 0a1.425 1.425 0 0 0 .991-.634" fill="none" stroke="#ff3900" stroke-linecap="round" stroke-linejoin="round" stroke-width=".698" transform="scale(2)"></path>
    <path d="M34.148 63.233a2.124 2.124 0 0 0 1.246.2c1.2-.15 1.832-1.8 1.264-2.932a2.111 2.111 0 0 0-.772-.879" fill="none" stroke="#ff3900" stroke-linecap="round" stroke-linejoin="round" stroke-width=".698" transform="scale(2)"></path>
    <path d="M28.649 60.092s.115-.007.3-.014c.768-.045 2.764-.143 3.116-.112.437.035 1.641.3 1.641.3" fill="none" stroke="#ff3900" stroke-linecap="round" stroke-linejoin="round" stroke-width=".698" transform="scale(2)"></path>
    <path d="m28.879 65.138.035.011c.307.115 2.617.963 3.667 1.284" fill="none" stroke="#ff3900" stroke-linecap="round" stroke-linejoin="round" stroke-width=".698" transform="scale(2)"></path>
    <path d="M26.645 48.844c-.014-.122-.045-.977 2.1-.628a10.086 10.086 0 0 1 4.279 2.077l.01.01" fill="none" stroke="#ff3900" stroke-linecap="round" stroke-linejoin="round" stroke-width=".698" transform="scale(2)"></path>
    <path d="M22.426 45.822s3.727-.213 4.219 3.022a.03.03 0 0 1 0 .018" fill="none" stroke="#ff3900" stroke-linecap="round" stroke-linejoin="round" stroke-width=".698" transform="scale(2)"></path>
    <path d="M21.3 55.587c4.6 1.734 5.119-4.778 5.346-6.725 0 0 4.5.488 5.96 1.207.14.07.28.147.416.224a6.522 6.522 0 0 1 2.952 3.779s1.787-1.835-.551-6.6a8.653 8.653 0 0 0-9.245-4.456q-.278.061-.576.139a11.643 11.643 0 0 0-4.742 2.293c-2.733 3.081-2.52 6.815-2.694 7.325-1.658 4.889-7.618 13.2-5.807 18.23" fill="none" stroke="#ff3900" stroke-linecap="round" stroke-linejoin="round" stroke-width=".698" transform="scale(2)"></path>
    <path d="M70.048 66.105a7.859 7.859 0 0 0 1.769-.946 1.587 1.587 0 0 0 .394-.443.724.724 0 0 0-.394-1.089 1.438 1.438 0 0 0-.475-.049 13.419 13.419 0 0 0-4.219 1.431 1.951 1.951 0 0 0-.8.729l-2.991 5.7-3.223 6.822" fill="none" stroke="#ff3900" stroke-linecap="round" stroke-linejoin="round" stroke-width=".698" transform="scale(2)"></path>
    <path d="M68.844 66.559s.275-.091.666-.241c.161-.06.342-.133.534-.21" fill="none" stroke="#ff3900" stroke-linecap="round" stroke-linejoin="round" stroke-width=".698" transform="scale(2)"></path>
    <path d="m49.427 78.298 4.725 6.522" fill="none" stroke="#ff3900" stroke-linecap="round" stroke-linejoin="round" stroke-width=".698" transform="scale(2)"></path>
    <path d="m46.206 92.093 3.221 3.8" fill="none" stroke="#ff3900" stroke-linecap="round" stroke-linejoin="round" stroke-width=".698" transform="scale(2)"></path>
    <path d="m67.828 78.26 1.5-3.047a5.589 5.589 0 0 0 4.289-2.2c2.107-2.387 2.606-4.052 1.72-4.662s-2.722.223-3.249 1.221-.122 2.359 2.436.447" fill="none" stroke="#ff3900" stroke-linecap="round" stroke-linejoin="round" stroke-width=".698" transform="scale(2)"></path>
    <path d="M75.338 68.349s1.162-1.054.785-2.1-2.376-.541-3.629.21a4.984 4.984 0 0 0-1.406 1.274c-.559.785-.6 1.619 1 1.835" fill="none" stroke="#ff3900" stroke-linecap="round" stroke-linejoin="round" stroke-width=".698" transform="scale(2)"></path>
    <path d="M76.123 66.251s.168-1.06-1.256-1.867c-.953-.541-2.541.349-2.541.349" fill="none" stroke="#ff3900" stroke-linecap="round" stroke-linejoin="round" stroke-width=".698" transform="scale(2)"></path>
    <path d="M70.048 66.105c-.049.077-.75 1.145.429 1.438a2.236 2.236 0 0 0 .433.066" fill="none" stroke="#ff3900" stroke-linecap="round" stroke-linejoin="round" stroke-width=".698" transform="scale(2)"></path>
    <path d="m75.286 62.573 4.278-4.523 2.275-2.4 2.2-2.324a.777.777 0 0 0-1.139-1.058l-3.3 3.542-5.807 6.229" fill="none" stroke="#ff3900" stroke-linecap="round" stroke-linejoin="round" stroke-width=".698" transform="scale(2)"></path>
    <path d="m69.538 66.394-4.983 5.27a.774.774 0 0 0 .115 1.152.786.786 0 0 0 .457.146.777.777 0 0 0 .569-.248l4.652-4.92" fill="none" stroke="#ff3900" stroke-linecap="round" stroke-linejoin="round" stroke-width=".698" transform="scale(2)"></path>
    <path d="M74.867 64.384s.82-1.022.167-1.776a1.519 1.519 0 0 0-.335-.276 1.864 1.864 0 0 0-.91-.286 3.011 3.011 0 0 0-2.447 1.529" fill="none" stroke="#ff3900" stroke-linecap="round" stroke-linejoin="round" stroke-width=".698" transform="scale(2)"></path>
  </g>
</svg>